<?xml version="1.0" encoding="UTF-8" standalone="no"?>
<svg
   xmlns:dc="http://purl.org/dc/elements/1.1/"
   xmlns:cc="http://creativecommons.org/ns#"
   xmlns:rdf="http://www.w3.org/1999/02/22-rdf-syntax-ns#"
   xmlns:svg="http://www.w3.org/2000/svg"
   xmlns="http://www.w3.org/2000/svg"
   xmlns:sodipodi="http://sodipodi.sourceforge.net/DTD/sodipodi-0.dtd"
   xmlns:inkscape="http://www.inkscape.org/namespaces/inkscape"
   width="1558"
   height="1085"
   id="svg2"
   version="1.1"
   inkscape:version="0.48.4 r"
   sodipodi:docname="2014-10-16_22.27.06.pdf">
  <metadata
     id="metadata766">
    <rdf:RDF>
      <cc:Work
         rdf:about="">
        <dc:format>image/svg+xml</dc:format>
        <dc:type
           rdf:resource="http://purl.org/dc/dcmitype/StillImage" />
        <dc:title></dc:title>
      </cc:Work>
    </rdf:RDF>
  </metadata>
  <defs
     id="defs764" />
  <sodipodi:namedview
     pagecolor="#ffffff"
     bordercolor="#666666"
     borderopacity="1"
     objecttolerance="10"
     gridtolerance="10"
     guidetolerance="10"
     inkscape:pageopacity="0"
     inkscape:pageshadow="2"
     inkscape:window-width="1920"
     inkscape:window-height="1005"
     id="namedview762"
     showgrid="false"
     inkscape:zoom="0.35355339"
     inkscape:cx="3276.4429"
     inkscape:cy="150.34647"
     inkscape:window-x="-9"
     inkscape:window-y="-9"
     inkscape:window-maximized="1"
     inkscape:current-layer="svg2"
     showguides="true"
     inkscape:guide-bbox="true">
    <sodipodi:guide
       orientation="0,1"
       position="1061.4167,1084.173"
       id="guide3790" />
    <sodipodi:guide
       orientation="0,1"
       position="1055.9687,-0.0625"
       id="guide3792" />
  </sodipodi:namedview>
  <path
     style="fill:#010101; stroke:none;"
     d="M97 0C99.2551 10.3711 96.007 22.4009 96.0077 33L91.2168 136L91.5949 184L91.983 196.827C90.8042 200.487 85.7605 198.851 83 198.424C74.8447 197.163 61.3422 192.836 64 207C72.1387 202.88 75.9959 202.944 85 204.411C87.4283 204.806 91.9736 204.714 92.7438 207.724L93.0031 232.999C93.1598 255.055 91.796 276.175 89.1844 298C84.3069 338.761 80.0204 381.947 79.0147 423L77 476C77 480.763 79.0226 491.769 75.3966 495.397C72.0649 498.73 63.3674 497.036 59 497.579C40.2052 499.914 20.864 496.156 2 496L2 502L57.0394 503.961C61.7081 503.943 72.6098 500.325 76.3966 503.693C79.2778 506.255 78.201 512.605 78.1698 516L78 550L72 689L72.6296 728C73.0142 731.245 75.9662 739.687 73.3071 742.227C70.2583 745.139 58.1367 742.981 54 743.001L0 743L0 749C27.2382 752.367 55.3886 744.799 82 753C86.3911 748.854 90.5017 750.661 96 750.661L126 749.542C164.611 748.015 205.067 749.536 244 751.822C254.541 752.441 277.059 749.559 285 757C279.395 756.759 271.256 753.474 270 761C276.59 762.223 291.541 759.918 296.567 763.758C300.217 766.547 305.029 778.571 307 783C297.905 785.488 291.556 788.071 282 785.214C277.756 783.946 269.494 776.204 265.304 777.712C261.542 779.066 264.119 784.578 265 787L258 786C252.767 789.903 243.116 785.777 237 785C245.33 779.833 247.448 784.379 256 785C254.201 778.591 241.954 764.409 234.055 766.708C228.922 768.202 230.643 775.292 224.952 775.827L193 773.63C128.83 770.803 63.9668 778.048 0 773L0 780L137 780.254L179 780C185.865 780.014 196.527 779.05 202.896 781.742C208.437 784.085 217.642 793.501 222 798L196 791.174L172.83 791.795C164.673 790.479 149.602 787.614 158 800C149.69 799.569 142.117 794.45 135.015 790.478C132.421 789.027 128.319 785.664 125.148 786.711L118.81 797.487C113.591 801.776 104.411 797.016 100.607 801.357C97.9088 804.437 100.247 808.736 101.231 812C104.589 823.137 113.129 830.81 125 832L123 837C104.092 827.903 120.416 849.878 121.471 855.995L118.238 866.4C119.993 868.806 123.919 866.753 126 866C115.442 877.978 105.651 874.597 91.0394 875.049L35 877.361C23.9672 878.129 10.8565 881.721 0 880L0 887L70 882.406C79.4958 882.059 91.7774 879.471 101 881.39C116.764 884.672 125.029 902.025 140 906.422L154.004 903.626L177.015 908.724L203 907.055L214.09 910.723L238 908.197C249.025 908.655 256.112 918.522 268 915L266 908L293 900.221L303.381 902.914C305.947 901.152 303.594 896.252 303 894C312.98 891.84 322.753 885.297 332 881L315.086 892.589C313.727 894.905 315.774 896.622 318.059 896.378L339.039 886.572L350.681 886.728C353.563 885.105 352.581 881.562 352 879C359.031 876.602 365.2 872.615 373 873.596C379.97 874.474 384.483 881.273 391.674 875.347C398.361 869.837 395.962 861.924 400.407 856.29L421.946 842.981C427.118 837.633 432.107 829.815 435.086 823C436.882 818.892 438.262 811.539 442.275 809.027L455 807C454.083 808.346 444.548 820.607 450.867 820.168C459.754 819.551 472.692 794.511 483 811L497 804C493.759 810.065 487.095 815.78 489 823C502.96 816.436 505.364 803.362 523 803L516.427 811C515.324 812.294 502.767 827.699 511.734 824.003C525.553 818.307 530.293 797.231 548 800L528.385 823.015C526.526 825.22 522.286 828.605 522.346 831.756C522.445 836.965 529.745 831.18 530.999 830.125C537.516 824.642 545.062 817.591 549 810C555.925 820.743 531.48 834.925 530 846C539.754 844.915 548.658 833.688 552 825L554 825C558.136 837.689 544.559 842.854 541 854C547.716 854.532 551.196 849.716 555.271 845.001C556.997 843.003 559.868 838.424 563.056 839.346C571.476 841.781 560.734 852.699 566.333 854.654C569.92 855.907 572.745 850.41 574 848L576 848C580.384 856.438 591.88 855.703 600 857.584C622.498 862.796 635.993 862.945 656 851.093C665.121 845.69 668.392 845.823 671 835C675.94 839.555 671.962 846.827 674 853C677.235 851.321 678.528 849.313 680 846L686.526 854.824C692.7 857.998 688.722 846.631 688 845C697.745 853.486 709.894 864.568 723 867.196L748 869L737 869C737.368 880.06 751.895 877.983 760 878L778 882.544L798 877.887L809.999 879.478L818.286 877.403C826.98 878.637 840.362 886.807 848.867 883.106C850.832 882.252 854.05 876.264 856.31 877.921C860.731 881.164 857.247 892.702 857.04 897L858.822 923L854.439 950C852.629 961.747 862.346 972.726 874 973L873 970C880.729 974.87 888.116 974 897 974C897 972.601 896.75 971.667 898.667 971.667C908.383 971.667 917.494 972.61 926 965L925 969C939.876 964.81 953.407 953.8 969 953C967.449 943.277 955.015 947.847 949 951C951.363 946.197 960.301 939.18 966 939.524C976.197 940.139 987.42 949.621 996 954.377L1034 971.323C1089.7 1001.21 1147.99 1025.29 1205 1052.3C1230.41 1064.33 1257.57 1085 1286 1085L1259.04 1070.65C1233.57 1055.85 1206.59 1045.72 1180.04 1033.17C1110.89 1000.48 1039.95 969.126 973 932C976.877 927.278 984.426 918.203 991 917.708C997.612 917.21 1009.97 925.765 1016 928.752L1072 954.691C1132.66 982.541 1192.92 1011.77 1252 1042.89C1280.2 1057.74 1312.56 1085 1345 1085C1334.06 1075.49 1318.63 1069.87 1306 1062.86L1214 1013.68L1185 998.861C1179.93 996.593 1174.8 995.352 1175 989C1169.06 983.178 1171.37 962.457 1170.96 954C1169.28 919.353 1168.03 886.398 1171.68 852L1170.11 840C1171.3 802.901 1165.91 767.014 1165.01 730L1163.26 629L1169 520C1191.2 519.816 1214.02 514.915 1236 512.286L1290 509.559L1324 507.742L1333.68 508.032C1339.55 511.855 1337.3 532.641 1337.5 539L1340.22 629.089C1344.69 699.83 1345.23 772.052 1344.04 843L1341.01 870L1344.91 923C1346.16 942.46 1345 961.657 1348.39 981L1352.85 1055C1353.55 1061.1 1352.41 1075.15 1357.43 1079.39C1359.95 1081.52 1364.05 1080.56 1364.15 1076.94L1361.59 1052C1356.54 1017.08 1355.88 980.352 1353.42 945.001C1351.87 922.857 1348.58 899.06 1349.13 877L1351.89 827C1351.08 759.733 1350.45 692.207 1346.21 625L1344.17 535L1342 508C1360.2 502.606 1383.07 505.79 1402 504.961L1512 501C1512 540.671 1511 580.334 1514.22 620L1532.91 818L1533.05 883.015L1537.26 936L1541 1085L1548 1085L1544.71 967L1544.91 929L1540.04 882L1541.96 853C1539.84 797.935 1534.46 741.622 1526.87 687L1518.87 591C1517.68 581.623 1515.38 563.391 1525 559C1521.33 544.892 1518.97 531.741 1518.21 517C1518.05 513.817 1517.56 503.961 1520.4 502.013L1532 501L1558 500L1557 493L1529 494.015C1526.24 494.081 1521.87 495.465 1519.6 493.357C1515.28 489.329 1518.2 474.545 1517.96 469L1512.09 402L1503.46 298L1504.58 267L1499.48 240L1491.01 143L1487 107C1510.48 100.909 1533.98 91.5317 1558 88L1558 82C1535.15 82.4743 1508.75 93.5115 1487 100L1480 0L1475 0L1479.04 73C1479.37 80.4443 1483.66 92.7991 1479.69 99.6975C1474.71 108.353 1450.79 108.983 1442 112.05C1402.2 125.941 1359.63 130.933 1320 145C1320 115.654 1319.27 85.1649 1316.83 56C1315.3 37.8066 1312.01 18.1683 1313 0L1308 0C1307.4 33.6929 1309.85 69.3045 1312.36 103L1314.04 133L1313.97 143.867C1312 147.376 1307.5 147.915 1304 148.909L1277 155.999L1202 171.514C1187.59 174.532 1172.76 180.365 1158 181L1154 0L1149 0C1149 44.4856 1148.88 89.6412 1151.67 134C1152.43 146.215 1153.69 159.896 1152.29 172C1151.87 175.597 1152.87 180.589 1149.68 183.143C1144.91 186.961 1135.74 186.753 1130 188.595C1109.02 195.328 1087.65 199.277 1066 203.6C1057.45 205.307 1042.7 205.088 1037 212L1014 184C1030.64 193.149 1040.11 175.713 1046.96 162L1056.06 147.996C1061.03 131.611 1053.9 103.455 1044.97 89.2986L1039 83C1027.88 83.0013 1019.51 91.1733 1010 96.6304C1006.21 98.8086 1000.94 104.118 996.109 103.068C989.245 101.576 991.992 84.1359 992 79L992 0L987 0C988.294 28.8696 986.24 58.1193 985.454 87C985.144 98.3983 990.618 111.775 984.544 122C971.566 143.849 946.356 147.137 924 151.31C909.407 154.034 899.004 160.456 884 154.521L855.996 137.263C839.822 128.928 824.807 123.127 810 111.996C805.999 108.988 791.733 92.2654 786.607 96.0471C781.682 99.6812 790.876 117.278 791.921 122L802.663 146L817.667 187C820.026 194.007 827.416 204.968 822.296 211.891C818.767 216.664 814.095 215.326 809 215.036L777 212.454C773.117 212.524 764.388 213.946 762.889 208.852C761.133 202.887 763.26 192.326 763.559 186L764.95 142L768.921 54L767 0L763 0L761.636 105L758.792 166C757.981 180.424 754.386 196.707 757 211C738.838 212.604 720.099 209.33 702 208.089C662.553 205.385 622.506 201.654 583 201.494L499 201.455C481.898 201.873 461.618 204.747 445 200C449.918 183.252 447.355 160.547 448.039 143C449.898 95.2822 445.031 47.614 445 0L442 0L442.947 46L442.128 139C441.551 158.807 443.638 181.688 439 201C416.765 195.721 390.65 201.394 368 200.985L176 200.011L124.004 200.012L98 200C100.139 190.991 98.0806 180.26 97.7454 171L96.8488 127L102 0L97 0z"
     id="path6" />
  <path
     style="fill:#898989; stroke:none;"
     d="M787 94L790 95L787 94z"
     id="path10" />
  <path
     style="fill:#b8b8b8; stroke:none;"
     d="M785 95L786 96L785 95M791 95L792 96L791 95z"
     id="path12" />
  <path
     style="fill:#c8c8c8; stroke:none;"
     d="M792 96L793 97L792 96z"
     id="path14" />
  <path
     style="fill:#777777; stroke:none;"
     d="M784 97L784 100L784 97z"
     id="path16" />
  <path
     style="fill:#c8c8c8; stroke:none;"
     d="M793 97L794 98L793 97M794 98L795 99L794 98z"
     id="path18" />
  <path
     style="fill:#a7a7a7; stroke:none;"
     d="M795 99L796 100L795 99z"
     id="path20" />
  <path
     style="fill:#b8b8b8; stroke:none;"
     d="M784 100L785 101L784 100z"
     id="path22" />
  <path
     style="fill:#777777; stroke:none;"
     d="M796 100L797 101L796 100z"
     id="path24" />
  <path
     style="fill:#585858; stroke:none;"
     d="M785 101L786 102L785 101z"
     id="path26" />
  <path
     style="fill:#696969; stroke:none;"
     d="M797 101L798 102L797 101M798 102L799 103L798 102z"
     id="path28" />
  <path
     style="fill:#494949; stroke:none;"
     d="M799 103L800 104L799 103z"
     id="path30" />
  <path
     style="fill:#b8b8b8; stroke:none;"
     d="M801 104L802 105L801 104z"
     id="path32" />
  <path
     style="fill:#c8c8c8; stroke:none;"
     d="M802 105L803 106L802 105z"
     id="path34" />
  <path
     style="fill:#b8b8b8; stroke:none;"
     d="M803 106L804 107L803 106z"
     id="path36" />
  <path
     style="fill:#9a9a9a; stroke:none;"
     d="M804 107L805 108L804 107z"
     id="path38" />
  <path
     style="fill:#777777; stroke:none;"
     d="M805 108L806 109L805 108z"
     id="path40" />
  <path
     style="fill:#696969; stroke:none;"
     d="M806 109L807 110L806 109z"
     id="path42" />
  <path
     style="fill:#ffffff; stroke:none;"
     d="M1512 495C1513.24 465.743 1508.08 437.005 1506.09 408L1497.96 304L1496.87 266L1492.01 209C1491.4 183.808 1490.38 155.442 1484 130.999C1482.82 126.499 1484.17 112.783 1480.4 110.067C1477.73 108.148 1472.67 110.502 1470 111.424L1445 117.654L1354 142.255C1346.44 144.34 1326.76 145.846 1322.03 152.513C1319.09 156.657 1321.17 166.14 1321.12 171C1320.98 183.712 1321.22 198.504 1323.32 211L1327.27 227L1325.11 244.039L1330.82 290L1339.2 423L1340.96 478C1340.78 482.975 1338.59 496.567 1342.6 500.218C1345.56 502.906 1351.52 500.366 1354.99 500.066L1388 499.169C1419.23 496.346 1450.75 495.773 1482 495.821L1512 495z"
     id="path44" />
  <path
     style="fill:#494949; stroke:none;"
     d="M807 110L808 111L807 110z"
     id="path46" />
  <path
     style="fill:#a7a7a7; stroke:none;"
     d="M809 111L810 112L809 111z"
     id="path48" />
  <path
     style="fill:#696969; stroke:none;"
     d="M810 112L811 113L810 112z"
     id="path50" />
  <path
     style="fill:#b8b8b8; stroke:none;"
     d="M812 113L813 114L812 113z"
     id="path52" />
  <path
     style="fill:#ffffff; stroke:none;"
     d="M986 139C988.17 143.01 987.475 145.641 983 147C983.001 152.339 982.297 156.903 988 159L993.323 139L1004 113C993.487 118.339 993.932 131.878 986 139z"
     id="path54" />
  <path
     style="fill:#898989; stroke:none;"
     d="M813 114L814 115L813 114z"
     id="path56" />
  <path
     style="fill:#585858; stroke:none;"
     d="M814 115L815 116L814 115z"
     id="path58" />
  <path
     style="fill:#363636; stroke:none;"
     d="M815 116L816 117L815 116z"
     id="path60" />
  <path
     style="fill:#c8c8c8; stroke:none;"
     d="M817 117L818 118L817 117z"
     id="path62" />
  <path
     style="fill:#a7a7a7; stroke:none;"
     d="M818 118L819 119L818 118z"
     id="path64" />
  <path
     style="fill:#ffffff; stroke:none;"
     d="M1027 155C1031.42 164.272 1027.71 165.501 1026 175C1043.64 165.325 1049.43 135.884 1044 118C1034.66 120.836 1041.24 135.731 1039.9 142.995C1038.99 147.969 1031.22 152.617 1027 155z"
     id="path66" />
  <path
     style="fill:#898989; stroke:none;"
     d="M819 119L820 120L819 119z"
     id="path68" />
  <path
     style="fill:#494949; stroke:none;"
     d="M820 120L821 121L820 120z"
     id="path70" />
  <path
     style="fill:#898989; stroke:none;"
     d="M822 121L823 122L822 121z"
     id="path72" />
  <path
     style="fill:#b8b8b8; stroke:none;"
     d="M824 122L825 123L824 122z"
     id="path74" />
  <path
     style="fill:#494949; stroke:none;"
     d="M825 123L826 124L825 123z"
     id="path76" />
  <path
     style="fill:#b8b8b8; stroke:none;"
     d="M826 123L827 124L826 123z"
     id="path78" />
  <path
     style="fill:#363636; stroke:none;"
     d="M827 124L828 125L827 124z"
     id="path80" />
  <path
     style="fill:#b8b8b8; stroke:none;"
     d="M828 124L829 125L828 124z"
     id="path82" />
  <path
     style="fill:#585858; stroke:none;"
     d="M829 125L830 126L829 125z"
     id="path84" />
  <path
     style="fill:#777777; stroke:none;"
     d="M831 126L832 127L831 126z"
     id="path86" />
  <path
     style="fill:#898989; stroke:none;"
     d="M833 127L834 128L833 127z"
     id="path88" />
  <path
     style="fill:#777777; stroke:none;"
     d="M835 128L836 129L835 128z"
     id="path90" />
  <path
     style="fill:#585858; stroke:none;"
     d="M794 129L795 130L794 129z"
     id="path92" />
  <path
     style="fill:#696969; stroke:none;"
     d="M837 129L838 130L837 129z"
     id="path94" />
  <path
     style="fill:#a7a7a7; stroke:none;"
     d="M838 129L839 130L838 129z"
     id="path96" />
  <path
     style="fill:#b8b8b8; stroke:none;"
     d="M794 130L795 131L794 130z"
     id="path98" />
  <path
     style="fill:#494949; stroke:none;"
     d="M795 130L796 131L795 130z"
     id="path100" />
  <path
     style="fill:#363636; stroke:none;"
     d="M839 130L840 131L839 130z"
     id="path102" />
  <path
     style="fill:#696969; stroke:none;"
     d="M840 130L841 131L840 130z"
     id="path104" />
  <path
     style="fill:#b8b8b8; stroke:none;"
     d="M841 130L842 131L841 130z"
     id="path106" />
  <path
     style="fill:#898989; stroke:none;"
     d="M795 131L796 132L795 131z"
     id="path108" />
  <path
     style="fill:#696969; stroke:none;"
     d="M842 131L843 132L842 131M796.333 132.667L796.667 133.333L796.333 132.667z"
     id="path110" />
  <path
     style="fill:#363636; stroke:none;"
     d="M843 132L844 133L843 132z"
     id="path112" />
  <path
     style="fill:#9a9a9a; stroke:none;"
     d="M844 132L845 133L844 132z"
     id="path114" />
  <path
     style="fill:#ffffff; stroke:none;"
     d="M1050 132L1050 134L1052 134L1052 132L1050 132z"
     id="path116" />
  <path
     style="fill:#363636; stroke:none;"
     d="M845 133L846 134L845 133z"
     id="path118" />
  <path
     style="fill:#777777; stroke:none;"
     d="M846 133L847 134L846 133z"
     id="path120" />
  <path
     style="fill:#a7a7a7; stroke:none;"
     d="M796 134L797 135L796 134z"
     id="path122" />
  <path
     style="fill:#494949; stroke:none;"
     d="M848 134L849 135L848 134z"
     id="path124" />
  <path
     style="fill:#898989; stroke:none;"
     d="M849 134L850 135L849 134z"
     id="path126" />
  <path
     style="fill:#363636; stroke:none;"
     d="M797 135L798 136L797 135z"
     id="path128" />
  <path
     style="fill:#585858; stroke:none;"
     d="M851 135L852 136L851 135z"
     id="path130" />
  <path
     style="fill:#9a9a9a; stroke:none;"
     d="M852 135L853 136L852 135z"
     id="path132" />
  <path
     style="fill:#ffffff; stroke:none;"
     d="M1027 142L1028 143L1035 141L1034 135C1030.31 136.497 1028.5 138.313 1027 142z"
     id="path134" />
  <path
     style="fill:#a7a7a7; stroke:none;"
     d="M797 136L798 137L797 136z"
     id="path136" />
  <path
     style="fill:#777777; stroke:none;"
     d="M854.667 136.333L855.333 136.667L854.667 136.333z"
     id="path138" />
  <path
     style="fill:#ffffff; stroke:none;"
     d="M1050 136L1050 138L1053 138L1053 136L1050 136z"
     id="path140" />
  <path
     style="fill:#696969; stroke:none;"
     d="M798 137L799 138L798 137M799 139L800 140L799 139z"
     id="path142" />
  <path
     style="fill:#585858; stroke:none;"
     d="M800 141L801 142L800 141z"
     id="path144" />
  <path
     style="fill:#a7a7a7; stroke:none;"
     d="M800 142L801 143L800 142z"
     id="path146" />
  <path
     style="fill:#494949; stroke:none;"
     d="M801 143L802 144L801 143z"
     id="path148" />
  <path
     style="fill:#a7a7a7; stroke:none;"
     d="M801 144L802 145L801 144z"
     id="path150" />
  <path
     style="fill:#585858; stroke:none;"
     d="M802 145L803 146L802 145z"
     id="path152" />
  <path
     style="fill:#b8b8b8; stroke:none;"
     d="M802 146L803 147L802 146z"
     id="path154" />
  <path
     style="fill:#585858; stroke:none;"
     d="M803.333 147.667L803.667 148.333L803.333 147.667z"
     id="path156" />
  <path
     style="fill:#9a9a9a; stroke:none;"
     d="M803 149L804 150L803 149z"
     id="path158" />
  <path
     style="fill:#585858; stroke:none;"
     d="M804 151L805 152L804 151z"
     id="path160" />
  <path
     style="fill:#c8c8c8; stroke:none;"
     d="M804.333 152.667L804.667 153.333L804.333 152.667z"
     id="path162" />
  <path
     style="fill:#363636; stroke:none;"
     d="M805 154L806 155L805 154z"
     id="path164" />
  <path
     style="fill:#ffffff; stroke:none;"
     d="M1335 501C1335 402.683 1323.95 304.807 1316.09 207L1315 154C1302.34 154.106 1289.39 159.74 1277 162.335L1197 179.269L1170.17 185.694C1167.11 186.274 1162.14 186.024 1160.03 188.728C1151.95 199.078 1159.59 220.948 1158.12 233.015C1155.84 251.702 1158.13 270.049 1158.96 289L1163.83 388C1166.82 418.361 1168.98 449.549 1167.63 480L1167.67 505C1167.81 507.229 1167.5 511.445 1169.6 512.883L1181 512.911L1214 509.166L1335 501z"
     id="path166" />
  <path
     style="fill:#898989; stroke:none;"
     d="M805 155L806 156L805 155z"
     id="path168" />
  <path
     style="fill:#ffffff; stroke:none;"
     d="M996 156C996.112 159.524 996.46 161.516 999 164L999 156L996 156z"
     id="path170" />
  <path
     style="fill:#585858; stroke:none;"
     d="M806 157L807 158L806 157z"
     id="path172" />
  <path
     style="fill:#b8b8b8; stroke:none;"
     d="M806 158L807 159L806 158z"
     id="path174" />
  <path
     style="fill:#494949; stroke:none;"
     d="M807 159L808 160L807 159z"
     id="path176" />
  <path
     style="fill:#a7a7a7; stroke:none;"
     d="M807 160L808 161L807 160z"
     id="path178" />
  <path
     style="fill:#ffffff;stroke:none"
     d="m 914,164 15,2 0,3 c -13.416,2.482 -25.507,-2.005 -39,2.94 -8.642,3.167 -15.794,11.613 -23,17.27 -12.213,9.587 -28.955,19.526 -38.367,31.88 L 818.702,241 c -5.07,9.672 -15.502,18.024 -12.643,29.941 1.228,5.116 7.358,3.838 9.941,8.059 l -8,0 -1,4 c -9.931,-2.159 -32.881,1.281 -40.455,8.649 L 744.735,322 699.12,374.989 C 689.962,385.685 671.793,397.077 668,411 c 12.154,6.218 24.945,9.438 38,13 21.596,-33.98 52.966,-61.974 73.117,-97 3.871,-6.73 -4.335,-9.351 -6.544,-15.004 -3.553,-9.091 4.78,-18.43 12.427,-21.996 -8.698,13.151 -11.193,16.508 -1,29 l 6,-2 c -1.402,9.144 8.544,23.472 12.512,32 l 8.797,20 c 2.834,5.537 8.321,12.459 7.67,19 -0.265,2.66 -5.681,11.839 -9.058,7.407 L 814.196,383 806.403,369 793.662,340 c -1.252,-3.267 -3.146,-14.213 -8.616,-12.654 C 777.44,329.513 769.597,346 764.8,352 l -40.011,52.089 C 719.22,410.869 715.15,418.689 708,424 l 0,3 c 6.47,3.889 14.797,17.719 22.985,16.898 6.157,-0.617 13.63,-13.378 17.354,-17.937 l 32.738,-42.537 C 785.995,377.642 790.2,369.859 798,368 l -12.559,16 -32.321,40.985 c -4.952,5.858 -16.229,14.198 -17.476,22.015 L 740,461 c -5.426,-0.25 -7.659,-8.728 -12.286,-12.014 L 705.83,430.479 679,421.985 c -7.806,-2.805 -13.952,-9.27 -22,-3.985 l -1,-1 c 1.776,-2.184 3.666,-4.044 2.251,-7.002 L 650.901,399 646.235,376.004 c -1.122,-3.099 -3.42,-6.729 -7.224,-6.458 -7.353,0.524 -11.353,13.397 -15.76,18.024 l -9.922,6.539 C 602.436,405.84 591.093,425.846 586,441 c 6.143,-2.918 11.615,-8.312 19,-7.657 20.988,1.863 30.047,27.968 50,32.616 5.775,1.345 8.67,-1.88 14,-2.959 l 0,4 15,-2.698 c 12.162,1.007 16.463,14.304 24.09,21.513 6.563,6.202 15.111,8.252 16.91,18.185 -7.829,-1.232 -21.903,-13.746 -25,-21 -8.974,2.566 -14.303,14.811 -20.014,21.576 L 645.83,545 c -6.373,7.119 -15.713,14.347 -19.83,23 9.17,0.648 17.61,-0.149 26,4.598 6.465,3.658 14.535,13.823 22,14.084 8.516,0.298 15.222,-6.627 22,-10.563 l 17.826,-7.344 c 7.447,-4.744 14.291,-19.916 12.666,-28.77 C 725.284,533.427 715.363,528.254 712,522 c -6.495,1.828 -10.028,8.12 -14.286,13 l -24.548,29 c -3.984,4.471 -7.189,10.287 -13.166,12 7.685,-18.155 26.731,-34.258 39.324,-49.17 4.935,-5.843 9.543,-15.564 17.676,-16.83 -2.973,14.536 8.302,15.67 13.972,27 4.657,9.306 -4.622,26.488 -11.065,32.906 -5.711,5.688 -13.123,6.433 -19.907,10.048 -7.701,4.105 -14.074,11.211 -23,12.566 -12.111,1.839 -21.452,-15.069 -33,-18.064 -21.99,-5.704 -44.555,7.459 -67,-0.123 -8.292,-2.802 -17.811,-7.126 -20,-16.333 17.588,8.223 41.659,21.298 61.911,10.682 5.696,-2.986 10.111,-9.953 14.298,-14.697 L 656.584,527.039 687.772,488 c 4.004,-5.914 10.715,-14.036 0.139,-17.953 -15.976,-5.916 -30.564,8.355 -39.336,18.864 l -38.41,42.178 C 602.777,538.838 595.682,548.004 586,553 l 45.87,-50.385 c 8.642,-9.361 18.981,-19.834 24.13,-31.615 -10.204,-1.1 -16.126,-9.116 -25,-13 -14.805,19.36 -30.857,38.145 -47.579,55.83 -8.22,8.693 -20.716,17.898 -26.408,28.456 l -1.442,9.675 -6.487,28.039 -0.212,11.623 c -2.627,4.409 -5.48,-2.705 -5.872,-4.623 l -2,0 0,17 c 4.501,0.341 9.035,2.608 5,7 l 0,2 c 9.446,2.598 21.284,0.465 31,0.039 18.127,-0.793 34.773,3.045 47.985,16 10.103,9.907 12.725,22.923 20.826,33.751 4.254,5.687 10.74,7.797 9.884,16.21 -2.017,19.819 -22.933,24.484 -37.695,31.503 l -15.258,7.199 c -4.177,4.496 -2.305,9.574 -8.746,13.287 -14.28,8.233 -39.357,1.692 -53.996,-2.989 l -1,1 c 2.104,5.72 3.546,16.045 7.728,20.436 8.404,8.825 26.998,-2.487 36.272,-3.436 -6.236,13.058 -23.914,13.919 -36,11 l -1,7 c 5.711,0.016 23.326,3.234 9,7 l 7.652,17.985 7.177,8.06 c 0.942,2.251 -0.454,3.431 -1.829,4.955 1.317,5.56 6.718,16.315 -3,16 0.43,3.829 -0.167,5.386 -3,8 7.345,7.863 18.773,13.055 29,16 l -9.201,-15 -6.62,-18.996 c -0.467,-1.322 -2.386,-5.468 0.549,-5.523 2.941,-0.056 6.46,4.922 8.287,6.84 L 603.177,831 c 3.889,5.702 -1.821,12.375 1.47,16.49 3.994,4.993 13.566,5.992 19.353,5.51 l -14.428,-27 c -0.929,-1.97 -5.168,-7.174 -3.539,-9.364 2.04,-2.742 7.082,3.667 8.222,4.94 L 636,844 l 6,-1 c -5.254,-9.427 -26.292,-22.127 -24,-33 6.873,2.951 11.535,7.4 16.425,13.004 l 9.745,9.69 c 4.162,1.372 9.25,-3.673 7.338,-7.693 -3,-6.306 -12.608,-11.113 -17.554,-16.175 -6.594,-6.747 -10.167,-15.149 -13.196,-23.826 -1.377,-3.942 -5.695,-10.845 -2.336,-14.682 3.96,-4.523 13.468,-1.974 18.578,-1.488 13.599,1.294 26.717,-1.327 40,-3.83 -0.008,-3.963 -2.268,-16.644 1.573,-19.079 5.994,-3.798 4.063,14.898 3.427,17.079 l 6,-1 c -1.146,-3.146 -5.117,-19.369 0.182,-20.369 5.859,-1.105 4.363,15.296 3.818,18.369 6.288,-2.087 5.66,-24.427 6,-31 7.16,2.145 4.11,16.825 4,23 2.82,-1.843 7.006,-3.962 8.397,-7.209 4.029,-9.41 1.099,-25.484 2.737,-35.88 0.26,-1.646 4.16,-12.695 6.094,-6.704 L 717.714,717 716.571,728 717,745 c 4.276,-0.385 10.498,-1.752 12.396,-6.21 L 729.464,727 c 1.274,-14.562 -0.237,-28.773 3.536,-43 l 2,0 c 2.845,15.326 0.087,33.315 0,49 4.067,-1.131 10.098,-4.709 11.266,-9.184 L 746.039,710 c 0.569,-13.347 1.017,-29.611 5.961,-42 7.215,13.519 -3.503,32.278 0,47 l 2,0 c 3.236,-4.205 9.505,-8.555 10.463,-14 l -2.119,-14.17 C 761.22,677.103 762.527,655.832 770,649 l -1,45 c 18.58,-12.869 18.606,-46.655 14,-66 l 4,-1 c -2.073,-15.322 -10.666,-25.781 -14.24,-40 -3.437,-13.673 -2.036,-30.33 0.441,-44 1.307,-7.215 -2.383,-22.372 7.799,-24 -0.032,11.7 -0.841,26.608 -3.264,38 -1.072,5.04 -2.813,12.983 3.264,15 l 1,12 5,-1 8.772,19.015 C 799.9,614.713 794.077,638.976 811,643 c 1.887,-23.903 -3.003,-48.235 0,-72 8.482,6.996 5.312,21.545 4.184,31 -2.385,19.997 2.163,41.856 1.816,62 8.621,-8.465 9.611,-25.41 23,-30 -6.056,19.335 -23.297,33.007 -18,55 l 18,-12 c 0.011,10.817 -14.527,13.259 -16.476,22.094 -1.715,7.774 4.51,14.651 4.538,21.817 0.074,19.122 3.077,37.765 6.677,57.089 1.559,8.37 -0.268,17.391 9.261,20 l 0,2 c -7.431,4.825 1.979,24.369 2,32 9.349,0.683 10.302,17.62 15,25 11.665,-3.887 9,15.497 9,23 0,20.017 0.906,40.023 -1.87,60 -0.856,6.165 -3.787,17.891 2.098,22.396 6.72715,5.14927 8.71038,-2.11913 10.25284,-7.7932 0.77335,-2.84485 1.07834,-5.27321 3.16316,-5.5033 3.41271,-0.37671 4.1327,0.76526 4.36496,3.58726 0.275,3.34129 -1.27405,8.54821 -1.66675,11.31745 -0.0619,0.43628 0.69729,0.69016 0.65779,0.99579 16.735,-1.292 11.2035,-26.9765 15.0405,-36.7895 4.702,-12.021 7.1265,5.0815 6.9205,9.7895 l -1.04,10 -3.921,15 c 33.338,-0.092 29.35,-41.205 30.911,-64 l 7.919,-82 c 2.785,-29.745 3.633,-61.006 11.573,-90.17 l 6.464,-11.83 11.509,-30 c 5.48,-11.029 10.77,-18.515 13.624,-31 -3.704,-1.707 -5.629,-3.093 -7,-7 12.597,3.289 12.71,-10.102 15,-20 l -41,0 c 8.315,-9.52 31.227,-5.757 43,-6 0.877,-4.509 5.74,-13.441 2.968,-17.566 -3.443,-5.131 -15.165,0.021 -19.968,0.696 -21.352,3.002 -39.283,12.96 -60,17.87 9.821,-18.763 45.032,-18.974 63,-23.015 7.951,-1.788 13.591,-5.973 22,-4.985 l 1,-22 -8.044,7.291 c -7.778,4.153 -17.48,4.657 -25.956,6.528 L 945,592 c 11.884,-14.618 44.08,-5.288 54,-21 l -6.005,-1.375 c -4.176,-1.065 -12.048,-6.513 -2.99,-7.434 l 9.99,2.547 4.915,-0.365 c 1.07,-1.374 0.15,-3.105 -1.23,-3.756 l -8.192,-1.738 c -5.986,-4.375 1.079,-7.254 5.492,-6.282 L 1006,554 c -0.47,-10.746 -19.323,-5.594 -19.833,-14.945 -0.381,-6.99 18.333,4.914 21.093,-0.378 5.64,-10.825 -15.201,-20.388 -22.256,-24.253 -1.765,-0.967 -9.254,-5.757 -4.137,-7.828 2.536,-1.026 6.321,3.066 8.148,4.354 5.683,4.009 14.195,14.151 20.985,14.05 L 1007.37,512.424 1012,494 c -8.21,2.521 -15.709,-3.752 -21.911,-8.626 C 975.905,474.225 960.04,462.023 956,444 c 8.036,-0.706 11.804,12.637 16.26,18 10.941,13.169 24.716,22.389 40.74,28 4.03,-9.562 3.06,-21.756 4.29,-32 4.06,-33.952 1.22,-66.189 -0.25,-100 -0.39,-8.871 3.25,-13.187 4.73,-21.039 2.27,-12.022 1.15,-27.782 0.6,-39.961 l 1.8,-37 c 0.57,-5.713 4.03,-12.204 -0.17,-17 4.54,-8.196 7.39,-25.247 2.77,-33.701 L 1019,200 l -3,0 0,4 c -12.17,-3.484 -14.23,-21.197 -27,-24 l -3,14 c 15.38,4.918 15.43,12.669 14,27 -12.736,-2.614 -24.135,-14.752 -36,-19.735 -9.962,-4.184 -22.904,0.883 -31.922,-2.869 -10.111,-4.207 11.219,-7.34 13.922,-7.396 -0.93,-14.634 -3.268,-29.183 -20,-29.939 -4.566,-0.207 -9.202,-1.393 -12,2.939 z"
     id="path180"
     inkscape:connector-curvature="0"
     sodipodi:nodetypes="cccccccccccccccccccccccccccccccccccccccccccccccccccccccccccccccccccccccccccsccccccccccccccccccccccccccccccccccccccccccccccccccccccccccccccccccccccccccccccccccccccccccccccccccccscccccccccccsccccccsccscssccccccccccccccccccccccccccccccccccccccccccccccccccccccccccccccc" />
  <path
     style="fill:#363636; stroke:none;"
     d="M808 161L809 162L808 161z"
     id="path182" />
  <path
     style="fill:#9a9a9a; stroke:none;"
     d="M808 162L809 163L808 162z"
     id="path184" />
  <path
     style="fill:#898989; stroke:none;"
     d="M809 164L810 165L809 164z"
     id="path186" />
  <path
     style="fill:#363636; stroke:none;"
     d="M810 165L811 166L810 165z"
     id="path188" />
  <path
     style="fill:#a7a7a7; stroke:none;"
     d="M810 166L810 169L810 166z"
     id="path190" />
  <path
     style="fill:#363636; stroke:none;"
     d="M811 167L811 171L811 167z"
     id="path192" />
  <path
     style="fill:#ffffff; stroke:none;"
     d="M997 168L1000 171L997 168z"
     id="path194" />
  <path
     style="fill:#dadada; stroke:none;"
     d="M810.333 169.667L810.667 170.333L810.333 169.667z"
     id="path196" />
  <path
     style="fill:#777777; stroke:none;"
     d="M811 171L812 172L811 171z"
     id="path198" />
  <path
     style="fill:#696969; stroke:none;"
     d="M812 173L813 174L812 173M813 175L814 176L813 175z"
     id="path200" />
  <path
     style="fill:#a7a7a7; stroke:none;"
     d="M813 176L814 177L813 176z"
     id="path202" />
  <path
     style="fill:#494949; stroke:none;"
     d="M814 177L815 178L814 177z"
     id="path204" />
  <path
     style="fill:#898989; stroke:none;"
     d="M814 178L815 179L814 178z"
     id="path206" />
  <path
     style="fill:#ffffff; stroke:none;"
     d="M996 178C998.062 185.566 1007 193.783 1014 197C1010.89 188.909 1004.17 181.141 996 178z"
     id="path208" />
  <path
     style="fill:#494949; stroke:none;"
     d="M815 180L816 181L815 180z"
     id="path210" />
  <path
     style="fill:#898989; stroke:none;"
     d="M815 181L816 182L815 181z"
     id="path212" />
  <path
     style="fill:#494949; stroke:none;"
     d="M816 183L817 184L816 183z"
     id="path214" />
  <path
     style="fill:#898989; stroke:none;"
     d="M816 184L817 185L816 184z"
     id="path216" />
  <path
     style="fill:#363636; stroke:none;"
     d="M817 186L818 187L817 186z"
     id="path218" />
  <path
     style="fill:#777777; stroke:none;"
     d="M817 187L818 188L817 187z"
     id="path220" />
  <path
     style="fill:#696969; stroke:none;"
     d="M818.333 189.667L818.667 190.333L818.333 189.667z"
     id="path222" />
  <path
     style="fill:#dadada; stroke:none;"
     d="M818.333 191.667L818.667 192.333L818.333 191.667z"
     id="path224" />
  <path
     style="fill:#ffffff; stroke:none;"
     d="M1039 217C1040.14 224.352 1033 230.302 1033 239L1036 305C1036 312.905 1038.55 324.289 1029 327C1024.13 356.001 1027.7 386.844 1025.91 416C1023.67 452.564 1016.3 489.483 1016 526C1050.75 526 1085.35 519.465 1120 517.089L1148 515.089C1151.48 514.846 1156.56 515.612 1159.4 513.062C1162.79 510.006 1161.28 499.311 1161.53 495L1159.51 438C1160.87 407.174 1157.18 375.755 1155.09 345L1150.89 249L1146.76 238L1150.79 224L1152 191C1135.79 191.335 1119.67 198.4 1104 202.116C1082.51 207.21 1059.74 209.175 1039 217z"
     id="path226" />
  <path
     style="fill:#585858; stroke:none;"
     d="M819.333 192.667L819.667 193.333L819.333 192.667z"
     id="path228" />
  <path
     style="fill:#ffffff; stroke:none;"
     d="M839 203C844.399 200.432 849.361 196.755 853 192C847.215 193.375 841.685 197.697 839 203z"
     id="path230" />
  <path
     style="fill:#898989; stroke:none;"
     d="M819 194L820 195L819 194z"
     id="path232" />
  <path
     style="fill:#494949; stroke:none;"
     d="M820.333 194.667L820.667 195.333L820.333 194.667z"
     id="path234" />
  <path
     style="fill:#9a9a9a; stroke:none;"
     d="M820 196L821 197L820 196z"
     id="path236" />
  <path
     style="fill:#696969; stroke:none;"
     d="M821.333 197.667L821.667 198.333L821.333 197.667M822 200L823 201L822 200z"
     id="path238" />
  <path
     style="fill:#b8b8b8; stroke:none;"
     d="M822 201L823 202L822 201z"
     id="path240" />
  <path
     style="fill:#898989; stroke:none;"
     d="M988 201L989 202L988 201z"
     id="path242" />
  <path
     style="fill:#b8b8b8; stroke:none;"
     d="M989 201L990 202L989 201z"
     id="path244" />
  <path
     style="fill:#494949; stroke:none;"
     d="M823 202L824 203L823 202z"
     id="path246" />
  <path
     style="fill:#363636; stroke:none;"
     d="M989 202L990 203L989 202z"
     id="path248" />
  <path
     style="fill:#dadada; stroke:none;"
     d="M823 203L823 209C823.951 206.715 823.951 205.285 823 203z"
     id="path250" />
  <path
     style="fill:#ffffff; stroke:none;"
     d="M83 496C200.49 496 318.65 493.417 436 499L436.015 282L438.8 224C438.639 219.728 441.619 210.028 438.968 206.603C436.44 203.337 425.768 205.151 422 205.05L370 205.872C321.424 206.837 272.598 206.127 224 205.015L174 205.565L119 205.729C115.211 205.375 101.461 204.177 99.1173 207.603C96.4509 211.501 99.0484 221.419 98.8997 226L97.9907 279.17C90.4388 350.926 83 423.651 83 496z"
     id="path252" />
  <path
     style="fill:#494949; stroke:none;"
     d="M824 204L824 208L824 204z"
     id="path254" />
  <path
     style="fill:#010101; stroke:none;"
     d="M926 204.529C924.111 204.693 906.965 207.232 911.662 210.977C914.958 213.604 924.018 210.333 928 210.34L960 216.4C963.993 217.198 971.83 220.599 975.677 218.684C981.922 215.576 972.323 212.22 970 211.87C956.166 209.781 939.971 203.31 926 204.529z"
     id="path256" />
  <path
     style="fill:#ffffff; stroke:none;"
     d="M442 501L553 506C554.188 480.005 577.919 460.446 580 435L566 446L579.318 428.83L590.44 411.147L601.247 403.556C610.673 392.33 613.919 376.847 624.274 366.123L640.165 360.022L690 313.924C704.826 303.009 722.283 296.013 739 288.651C743.628 286.612 754.382 284.604 755.436 278.956C758.07 264.838 756 247.453 756 233C756 229.328 757.594 220.615 754.397 218.024C750.375 214.766 741.786 216.911 737 216.501L686 211.999C628.102 211.713 570.148 202.58 512 206.789L465 206.294C461.211 206.317 449.573 205.013 446.738 207.067C442.49 210.146 444.102 222.384 443.985 227L442 281L442.003 418L442 501M830 206L825 215C828.467 212.498 830.617 210.068 832 206L830 206z"
     id="path258" />
  <path
     style="fill:#a7a7a7; stroke:none;"
     d="M823 209L824 210L823 209z"
     id="path260" />
  <path
     style="fill:#696969; stroke:none;"
     d="M823 210L824 211L823 210z"
     id="path262" />
  <path
     style="fill:#b8b8b8; stroke:none;"
     d="M822 211L823 212L822 211z"
     id="path264" />
  <path
     style="fill:#696969; stroke:none;"
     d="M822 212L823 213L822 212z"
     id="path266" />
  <path
     style="fill:#c8c8c8; stroke:none;"
     d="M803 213L811 214L803 213M820 213L821 214L820 213z"
     id="path268" />
  <path
     style="fill:#777777; stroke:none;"
     d="M821 213L822 214L821 213z"
     id="path270" />
  <path
     style="fill:#171717; stroke:none;"
     d="M802 214L810 215L802 214z"
     id="path272" />
  <path
     style="fill:#494949; stroke:none;"
     d="M810.667 214.333L811.333 214.667L810.667 214.333z"
     id="path274" />
  <path
     style="fill:#898989; stroke:none;"
     d="M812 214L813 215L812 214z"
     id="path276" />
  <path
     style="fill:#dadada; stroke:none;"
     d="M816 214L819 215L816 214z"
     id="path278" />
  <path
     style="fill:#898989; stroke:none;"
     d="M819 214L820 215L819 214z"
     id="path280" />
  <path
     style="fill:#585858; stroke:none;"
     d="M820 214L821 215L820 214z"
     id="path282" />
  <path
     style="fill:#494949; stroke:none;"
     d="M814 215L819 216L814 215z"
     id="path284" />
  <path
     style="fill:#ffffff; stroke:none;"
     d="M762 218L761 263C761.005 267.051 760.322 275.984 763.028 279.254C765.045 281.691 769.372 280.355 772 280C780.124 278.901 789.57 278.576 797 275C793.652 265.681 800.825 254.488 803 245L804 248C806.283 246.554 806.582 245.689 807 243L804 244C807.708 239.533 816.737 230.433 814.381 224.059C812.566 219.148 806.184 220.062 802 219.41L762 218z"
     id="path286" />
  <path
     style="fill:#a7a7a7; stroke:none;"
     d="M803 219L810 220L803 219z"
     id="path288" />
  <path
     style="fill:#363636; stroke:none;"
     d="M810.667 219.333L811.333 219.667L810.667 219.333z"
     id="path290" />
  <path
     style="fill:#898989; stroke:none;"
     d="M812 220L813 221L812 220z"
     id="path292" />
  <path
     style="fill:#b8b8b8; stroke:none;"
     d="M813 221L814 222L813 221z"
     id="path294" />
  <path
     style="fill:#363636; stroke:none;"
     d="M814 221L815 222L814 221z"
     id="path296" />
  <path
     style="fill:#a7a7a7; stroke:none;"
     d="M814 222L815 223L814 222z"
     id="path298" />
  <path
     style="fill:#010101; stroke:none;"
     d="M942 223C946.079 230.846 963.809 236.633 972 234C969.23 224.946 950.257 221.103 942 223z"
     id="path300" />
  <path
     style="fill:#585858; stroke:none;"
     d="M815 223L816 224L815 223z"
     id="path302" />
  <path
     style="fill:#a7a7a7; stroke:none;"
     d="M815 224L815 228L815 224z"
     id="path304" />
  <path
     style="fill:#262626; stroke:none;"
     d="M816 224L816 228L816 224z"
     id="path306" />
  <path
     style="fill:#585858; stroke:none;"
     d="M815 228L816 229L815 228z"
     id="path308" />
  <path
     style="fill:#a7a7a7; stroke:none;"
     d="M814 229L815 230L814 229z"
     id="path310" />
  <path
     style="fill:#494949; stroke:none;"
     d="M813 231L814 232L813 231z"
     id="path312" />
  <path
     style="fill:#777777; stroke:none;"
     d="M812 232L813 233L812 232z"
     id="path314" />
  <path
     style="fill:#c8c8c8; stroke:none;"
     d="M811 233L812 234L811 233z"
     id="path316" />
  <path
     style="fill:#494949; stroke:none;"
     d="M811 234L812 235L811 234z"
     id="path318" />
  <path
     style="fill:#696969; stroke:none;"
     d="M810 235L811 236L810 235z"
     id="path320" />
  <path
     style="fill:#898989; stroke:none;"
     d="M809 236L810 237L809 236z"
     id="path322" />
  <path
     style="fill:#b8b8b8; stroke:none;"
     d="M808 237L809 238L808 237z"
     id="path324" />
  <path
     style="fill:#585858; stroke:none;"
     d="M808 238L809 239L808 238z"
     id="path326" />
  <path
     style="fill:#9a9a9a; stroke:none;"
     d="M807 239L808 240L807 239z"
     id="path328" />
  <path
     style="fill:#010101; stroke:none;"
     d="M894.647 240.132C891.842 242.012 895.594 245.447 897.109 246.561C901.065 249.471 916.194 260.564 921.338 256.894C924.058 254.954 919.648 252.272 918.266 251.425C914.529 249.133 898.305 237.68 894.647 240.132M952 240.515C949.506 240.678 940.546 243.004 946.323 246.389C949.788 248.42 959.958 249.476 963.941 248.848C967.631 248.266 967.913 245.087 964.847 243.164C961.574 241.11 955.791 240.269 952 240.515z"
     id="path330" />
  <path
     style="fill:#696969; stroke:none;"
     d="M806 241L807 242L806 241z"
     id="path332" />
  <path
     style="fill:#9a9a9a; stroke:none;"
     d="M805 242L806 243L805 242z"
     id="path334" />
  <path
     style="fill:#b8b8b8; stroke:none;"
     d="M804 243L805 244L804 243z"
     id="path336" />
  <path
     style="fill:#262626; stroke:none;"
     d="M805 243L806 244L805 243z"
     id="path338" />
  <path
     style="fill:#898989; stroke:none;"
     d="M803 245L804 246L803 245z"
     id="path340" />
  <path
     style="fill:#010101; stroke:none;"
     d="M980 246C983.344 257.667 1005.81 267.629 1017 269C1016.32 260.392 988.292 246.556 980 246z"
     id="path342" />
  <path
     style="fill:#a7a7a7; stroke:none;"
     d="M802 247L803 248L802 247z"
     id="path344" />
  <path
     style="fill:#262626; stroke:none;"
     d="M802.333 248.667L802.667 249.333L802.333 248.667z"
     id="path346" />
  <path
     style="fill:#b8b8b8; stroke:none;"
     d="M801 250L802 251L801 250z"
     id="path348" />
  <path
     style="fill:#777777; stroke:none;"
     d="M801 251L802 252L801 251z"
     id="path350" />
  <path
     style="fill:#262626; stroke:none;"
     d="M801.333 252.667L801.667 253.333L801.333 252.667z"
     id="path352" />
  <path
     style="fill:#9a9a9a; stroke:none;"
     d="M800 254L801 255L800 254z"
     id="path354" />
  <path
     style="fill:#363636; stroke:none;"
     d="M800.333 255.667L800.667 256.333L800.333 255.667z"
     id="path356" />
  <path
     style="fill:#898989; stroke:none;"
     d="M799.333 257.667L799.667 258.333L799.333 257.667z"
     id="path358" />
  <path
     style="fill:#262626; stroke:none;"
     d="M799.333 259.667L799.667 260.333L799.333 259.667z"
     id="path360" />
  <path
     style="fill:#c8c8c8; stroke:none;"
     d="M798 260L799 261L798 260z"
     id="path362" />
  <path
     style="fill:#010101; stroke:none;"
     d="M949 261C950.372 269.602 968.2 268.954 975 267C970.234 258.48 957.424 260.708 949 261z"
     id="path364" />
  <path
     style="fill:#898989; stroke:none;"
     d="M798 261L799 262L798 261z"
     id="path366" />
  <path
     style="fill:#c8c8c8; stroke:none;"
     d="M797 263L798 264L797 263z"
     id="path368" />
  <path
     style="fill:#898989; stroke:none;"
     d="M797 264L798 265L797 264z"
     id="path370" />
  <path
     style="fill:#9a9a9a; stroke:none;"
     d="M796 266L797 267L796 266z"
     id="path372" />
  <path
     style="fill:#b8b8b8; stroke:none;"
     d="M795 267L796 268L795 267z"
     id="path374" />
  <path
     style="fill:#9a9a9a; stroke:none;"
     d="M794 268L795 269L794 268z"
     id="path376" />
  <path
     style="fill:#010101; stroke:none;"
     d="M954 271L941 270.911L932 269.83C930.313 269.588 918.407 266.813 922.086 272.531C926.658 279.635 951.534 279.125 954 271M923 299C919.332 295.254 913.926 295.734 909 294.525L884 285.681C881.968 284.89 873.981 279.794 872.752 283.462C871.199 288.096 881.082 291.436 884 292.716C895.113 297.59 911.126 305.337 923 299M988 284C990.331 289.013 1009.82 300.444 1013.82 292.741C1015.38 289.744 1010.9 288.808 1009 288.273C1002.6 286.48 994.575 282.63 988 284M969 290L960 288.772C940.027 282.46 968.393 308.476 969 290z"
     id="path378" />
  <path
     style="fill:#ffffff; stroke:none;"
     d="M736 297C742.065 295.972 751.633 294.564 755 289C748.817 289.506 739.389 291.4 736 297M1030 292C1029.15 297.933 1029.08 304.294 1031 310L1032 292L1030 292z"
     id="path380" />
  <path
     style="fill:#010101; stroke:none;"
     d="M795 293C795.721 308.56 815.055 320.446 804 335C809.579 340.105 813.651 331.14 813.653 326C813.656 317.143 806.096 310.433 802.377 303C800.256 298.762 799.917 294.548 795 293z"
     id="path382" />
  <path
     style="fill:#ffffff; stroke:none;"
     d="M698 319L701 320L689.433 337L688.137 345.138L682.47 346.152C679.725 347.615 673.599 354.992 672.97 358.015C671.681 364.206 679.948 368.981 679 376L667.834 366.921C664.491 366.433 661.921 371.8 660.197 373.911C650.14 386.22 653.862 394.634 662 407C673.218 403.937 681.9 390.263 689.271 382.039L737.2 325.169C744.065 316.497 754.855 306.123 757 295C740.676 297.065 706.133 302.668 698 319z"
     id="path384" />
  <path
     style="fill:#010101; stroke:none;"
     d="M850 299C852.44 311.051 870.565 314.552 881 315C880.433 307.89 857.156 299.386 850 299M912.323 306.831C908.007 308.652 912.688 312.433 915.019 313.196C919.16 314.552 929.718 315.173 933.522 312.74C936.95 310.547 933.245 308.17 930.955 307.634C926.713 306.642 916.335 305.138 912.323 306.831M898 319C901.787 326.042 913.8 326.007 921 325.992C923.429 325.987 930.661 325.716 929.248 321.394C928.188 318.149 921.522 319.831 919 319.561L910 318.714L898 319z"
     id="path386" />
  <path
     style="fill:#ffffff; stroke:none;"
     d="M695 319L677 333L677 335L683 338C686.535 333.306 695.84 325.12 695 319z"
     id="path388" />
  <path
     style="fill:#010101; stroke:none;"
     d="M879 334L879 332L858 329.09C856.059 328.97 851.41 328.517 850.921 331.259C850.361 334.407 854.946 334.948 857.001 335.242C864.087 336.255 872.426 337.164 879 334M919 332C921.188 339.272 943.924 342.995 949.338 337.277C953.723 332.646 941.785 333.003 940 333L931 332.41L919 332z"
     id="path390" />
  <path
     style="fill:#ffffff; stroke:none;"
     d="M670 356L675.142 349.284C687.566 333.912 648.043 344.259 664.995 354.347L670 356M643 362C646.008 367.949 650.931 370.897 652 378C660.501 373.459 669.107 352.023 652.015 355.833L643 362z"
     id="path392" />
  <path
     style="fill:#010101; stroke:none;"
     d="M909 398L910 399L938 381.879C951.986 375.13 971.999 372.618 987.424 372.861C991.113 372.919 1011.36 376.973 1011.36 372.907C1011.36 365.104 986.916 366.698 982 367.286C959.786 369.942 918.74 373.069 909 398z"
     id="path394" />
  <path
     style="fill:#ffffff; stroke:none;"
     d="M624 374L623 378L626 374L624 374M616 383L616 385L618 385L618 383L616 383z"
     id="path396" />
  <path
     style="fill:#010101; stroke:none;"
     d="M984 389.478C982.166 389.682 968.113 392.136 972.662 395.991C975.17 398.116 980.129 396.623 983 396.286L1009.76 399.552C1014.46 398.753 1010.21 393.56 1007.96 392.564C1002.33 390.077 990.059 388.807 984 389.478M805 403L775.441 441.911C770.032 448.968 762.295 455.08 760 464C766.632 461.644 771.461 454.589 775.655 449.17L798.911 420.13C802.833 414.825 808.721 410.125 807 403L805 403M991 411C993.253 415.294 1013.17 422.879 1015.25 415.946C1017.26 409.253 994.515 409.338 991 411M1000.34 422.042C994.057 426.196 1009.84 431.512 1013.38 428.948C1018.27 425.401 1003.94 419.658 1000.34 422.042M820 433C829.639 429.311 817.464 422.592 820 433M1002 441L1008 440.995C1022.46 440.717 1004.11 427.782 1002 441z"
     id="path398" />
  <path
     style="fill:#ffffff; stroke:none;"
     d="M603 454C600.524 457.959 590.188 466.041 590.913 470.829C591.81 476.75 601.59 478.175 603 485C590.305 483.63 583.389 470.76 575 487C579.444 488.581 584.555 490.355 587.728 494.019C589.038 495.531 590.848 498.868 587.728 499.643C582.719 500.889 575.271 493.755 570 493L566 509C571.888 507.16 577.993 513.229 582.826 510.214C596.027 501.978 607.906 482.07 617.859 470C620.765 466.476 627.503 459.896 627.379 455.039C627.207 448.336 613.773 440.142 608 438.879C595.357 436.112 583.649 448.296 579.398 459C577.515 463.742 580.338 468.921 585.985 467.392L603 454z"
     id="path400" />
  <path
     style="fill:#010101; stroke:none;"
     d="M741 475L740 469C735.33 471.377 734.258 476.972 740.055 479.244C743.79 480.708 749.323 479.631 753 478.451C764.005 474.922 775.773 468.461 784.911 461.367C790.26 457.214 795.958 448.853 802.961 447.403L812 450C811.143 442.326 805.002 438.639 798 442.533L781.367 458.011C771.522 466.607 754.038 474.44 741 475M706 460C707.099 463.321 708.59 463.737 712 464C710.427 461.281 709.075 460.627 706 460z"
     id="path402" />
  <path
     style="fill:#ffffff; stroke:none;"
     d="M574 480L580 474C575.544 473.321 574.873 476.044 574 480M82 743C140.456 743.161 198.665 743.41 257 745.961L274.09 743.907L301 750.687L312 748.743L341 750C338.809 742.53 330.017 739.41 327 732C330.66 730.84 343.012 731.35 344.863 728.401C346.532 725.741 343.03 722.73 341.38 721.116C336.822 716.655 332.074 712.863 333 706C342.658 708.266 356.663 704.993 367 705L365.488 694.529L369.523 687.896C369.419 682.944 363.17 675.019 368.322 670.858C378.215 662.868 396.323 668.299 406.682 659.728C411.018 656.14 409.379 646.983 411.974 642C414.662 636.839 419.835 630.264 424.184 626.39L433.397 619.61C437.258 611.41 434.923 597.841 435.375 589C436.751 562.089 432.1 532.393 437 506C407.844 501.063 377.566 502.684 348 502.29L171 501.985L107 501.015C102.683 501.127 87.7118 500.214 85.0278 503.603C82.1356 507.255 84.1684 516.663 84.4244 521L84.9599 564C82.6377 623.693 77.2878 683.291 82 743M1525 559C1515.35 562.06 1517.43 580.102 1518.44 589L1526.29 684C1533.02 740.116 1538.81 796.601 1541.91 853L1540.09 884C1544.68 951.023 1548 1017.86 1548 1085L1558 1085L1558 500L1531 501C1527.88 501 1522.25 499.959 1519.63 502.013C1517.23 503.891 1518.07 513.096 1518.08 516C1518.1 530.551 1519.9 545.44 1525 559M1342 508C1348.84 546.046 1345.09 585.749 1346.06 624.039L1349.96 684L1351.75 827L1349.05 877L1353.08 944L1357.87 997L1361.32 1052L1363.61 1076.94C1363.3 1079.77 1360.54 1080.9 1358.23 1079.34C1351.78 1074.99 1352.5 1053.09 1352.83 1046C1354.22 1015.79 1347.14 985.421 1345.85 955.286L1341.01 876L1344.32 845C1345.98 769.585 1343.35 693.296 1340.29 618L1337.45 534C1337.04 528.481 1339.13 511.762 1334.4 508.028C1331.72 505.912 1327.07 507.61 1324 507.545L1291 509.255L1235 512.286C1213.29 514.882 1190.92 519.548 1169 520L1166.04 569.001L1166.84 591L1163.13 630L1165.07 733L1170.25 791L1170.29 872L1167.46 896C1166.97 917.374 1168.64 940.783 1171.42 962C1172.31 968.726 1169.04 985.133 1175 989C1173.6 997.427 1187.7 1000.83 1194 1003.89L1259 1036.94L1321 1071.31L1345 1084.35L1365 1085L1406 1085L1541 1085C1539.61 1017.64 1537.14 950.167 1533.14 883L1532.91 817L1519.17 681C1513.18 621.096 1512 561.013 1512 501L1400 504.985C1383.12 505.399 1357.54 501.57 1342 508M443 506L442 507L442.171 537C443.363 568.207 442.227 599.605 441 631C449.053 629.398 462.093 621.201 467.406 614.907C474.771 606.181 476.783 595.985 488 597L489 606L506 602C506.277 600.281 506.313 598.163 508.318 597.482L518 599.299L534 598L534.779 582L550.285 536C551.52 531.303 557.243 518.836 553.948 514.489C550.919 510.495 531.264 512.238 526 511.915C498.467 510.225 470.086 511.588 443 506M565 511L559 534C565.06 530.794 573.069 522.649 575 516L565 511M1013 568C1026.23 563.888 1012.44 580.824 1012 587C1026.93 577.759 1011.02 602.984 1009 609L1014.38 603.743C1016.29 602.555 1019.03 603.625 1018.03 606.136C1014.78 614.26 1007.11 617.177 1007 627C1019.08 625.846 1005.5 638.763 1004 646L1013 642C1012.41 649.916 1004.84 653.697 1002.63 661.001C999.431 671.596 1000.18 683.179 999.116 694L996 708L1006 706C1003.06 714.388 994.829 714.597 994 725L998 725L993.305 737L992.002 752.961L982.514 762.376L977 776L986.911 770.805C988.294 769.987 1003.34 763.234 998.994 769.716C991.757 780.504 974.977 779.828 973 795L980.039 790.011C981.932 788.591 996.852 782.186 991.338 789.6C985.371 797.624 971.256 799.318 968 810C972.416 808.852 980.627 799.23 984.623 801.161C988.777 803.168 981.407 808.276 979.999 809.396C967.95 818.982 963.147 824.793 960 840C972.312 837.081 983.008 824.866 994 818.865C996.299 817.61 1003.65 812.088 1005.94 815.6C1008.52 819.555 994.705 824.331 992.424 826.015C977.651 836.923 960.797 842.459 956 861C963.708 859.509 969.046 853.201 975 848.51L985 840.662C988.714 837.759 993.2 834.01 997.981 833.103C1000.65 832.598 1003.52 834.624 1001.34 837.317L990 844.475C980.292 851.323 970.321 858.522 962 867.023C957.905 871.207 954.593 871.483 954 878C964.588 874.61 972.965 863.045 982.576 857.174C985.355 855.477 988.371 852.222 991.922 852.542C994.99 852.819 994.77 855.576 992.793 857.162L981.089 864.131L954 887L954 889C968.551 896.668 989.424 877.064 999 866C1004.32 875.087 978.25 890.247 972 896C979.453 903.574 987.19 890.471 994.937 889.356C1002.48 888.272 992.355 896.942 991.001 897.88L984 904C990.062 902.458 1003.52 899.915 1006 908C1002.79 908.497 1001.56 909.15 1000 912C1029.25 929.075 1062.41 941.03 1093 955.626C1115.9 966.554 1139.88 981.379 1164 989L1159 898L1162.99 832.985L1158.04 721L1157.1 643L1160.41 587L1160.09 559C1160.73 549.648 1165.65 531.943 1161.26 523.318C1159.42 519.706 1152.33 520.492 1149 520.755L1113 523.961L1041 530.911C1035.98 531.257 1019.19 529.611 1016.03 533.603C1011.14 539.776 1013.19 560.111 1013 568z"
     id="path404" />
  <path
     style="fill:#010101; stroke:none;"
     d="M783 577L783 579L785 579L783 577z"
     id="path406" />
  <path
     style="fill:#ffffff; stroke:none;"
     d="M526 605C527.647 610.198 532.353 610.198 534 605L526 605M506 625L494.51 625.032C490.073 628.063 488.011 640.037 486.333 645L467.547 695C465.677 699.636 455.734 718.957 460.603 722.816C464.875 726.202 478.861 714.116 480.025 709.956L483.255 689.999L515 609C511.704 609.585 499.638 611.803 499.636 616.124L506 625M493 686C497.916 687.708 508.981 694.34 513.83 692.802C521.249 690.448 524.398 682.515 526.938 676L542.28 639C544.003 635.034 549.881 625.728 548.292 621.433C546.547 616.721 535.008 617.084 531.004 616.485L519.275 612.662C516.028 613.837 514.979 620.126 513.911 623L503.46 653L493 686M485 621C488.178 621.874 490.221 620.684 492 618L485 621M555 620C548.726 642.986 533.359 664.13 528 687C545.97 690.571 542.467 711.765 552.728 723.772C558.231 730.212 574.299 729.726 582 728.688C585.663 728.195 591.926 726.91 594.204 723.698C597.861 718.54 593.753 715.911 601.001 712.248C617.644 703.838 642.568 700.925 650.005 681C653.266 672.261 641.846 668.063 638.623 661L627.292 638C609.01 613.388 581.602 620 555 620z"
     id="path408" />
  <path
     style="fill:#010101; stroke:none;"
     d="M554 721C560.94 718.456 561.891 707.392 564.323 701L587.717 646C589.216 642.427 598.103 625.957 594.372 623.086C592.112 621.348 590.179 624.301 589.482 626.059L581.72 645C571.848 667.724 554.524 695.765 554 721z"
     id="path410" />
  <path
     style="fill:#ffffff; stroke:none;"
     d="M477 626L474 630C476.144 628.869 477.099 628.432 477 626M440 737L440 733C436.127 734.314 434.888 737.143 434 741C446.682 740.999 449.301 728.283 453.282 717.17L477.217 654L486 630C475.916 632.391 471.983 640.356 467.942 649C458.543 669.105 448.58 692.727 442.309 714C440.04 721.695 446.198 731.047 440 737M418 648C424.448 644.554 436.079 639.447 435 631C426.923 632.624 419.47 639.884 418 648M450 648C454.756 645.57 457.66 640.704 460 636C454.387 637.623 451.98 642.808 450 648z"
     id="path412" />
  <path
     style="fill:#010101; stroke:none;"
     d="M598 708C603.407 706.396 605.25 700.912 607.321 696L620.297 659C621.182 656.028 627.658 646.389 625.177 643.752C621.681 640.034 616.681 653.933 616.015 656.004C610.589 672.881 599.786 690.184 598 708z"
     id="path414" />
  <path
     style="fill:#ffffff;stroke:none"
     d="m 463,644 c -6.974,6.974 -15.277,13.763 -20.685,22.089 -6.351,9.777 -9.003,22.967 -12.716,33.911 -5.773,17.013 -13.968,35.183 -16.599,53 16.107,-7.532 20,-30.847 20,-47 7.74,-0.092 8.528,-4.604 11.573,-11 l 14.637,-36 c 1.566,-4.304 4.579,-10.502 3.79,-15 m 347,2 0,2 2,0 0,-2 -2,0 m 182,18 7,-2 3,-13 c -6.495,1.794 -8.671,8.883 -10,15 M 796,650 c -1.254,9.71 -4.149,21.509 -9.209,29.961 -4.864,8.123 -12.915,15.344 -14.791,25.039 8.813,-4.196 14.302,-16.551 20.389,-23.999 1.34,-1.641 4.913,-7.571 7.688,-6.388 3.541,1.509 -2.274,8.067 -3.363,9.387 l -21.344,28 c -20.692,27.857 -42.913,55.354 -61.025,85 l -15.996,28 c -2.119,5.083 -0.59,10.905 -4.349,15 l 9,8.125 c 3.563,2.57 10.097,8.991 14.906,8.008 4.961,-1.015 6.44,-10.363 8.779,-14.132 L 739.818,823 c 4.097,-7.369 7.2,-18.188 15.182,-22 l 3,-28 c -5.788,4.542 -8.997,12.095 -13.325,18 -11.332,15.463 -29.967,35.966 -33.675,55 -13.907,-6.568 8.831,-28.165 14.502,-36.039 L 761.181,756 l 14.507,-19.001 11.165,-20.183 c 3.829,-9.848 3.804,-21.072 13.147,-27.816 -0.784,3.43 -0.422,4.864 3,6 0.253,-12.308 6.945,-37.771 -7,-45 m -364,19 2,0 c 1.968,-3.703 6.593,-9.363 5.222,-13.851 -1.468,-4.804 -8.285,-2.195 -9.953,1.065 -2.1,4.102 0.783,9.249 2.731,12.786 m -11,-5 c 0.482,2.364 0.636,2.518 3,3 0.064,2.993 -0.054,4.346 3,5 -0.663,-4.156 -1.785,-6.812 -6,-8 m -5,7 4,-4 -4,4 m 578,-1 c -3.738,4.323 -6.652,8.389 -8,14 6.276,-2.607 10.996,-6.858 8,-14 m -620,4 c -1.672,7.814 2.625,21.961 12.856,16.276 3.742,-2.079 7.307,-9.456 9.144,-13.276 l -22,-3 m 1,135 8.852,-16 2.586,-11.985 16.348,-16.015 8.395,-26 c 7.201,-20.534 14.65,-39.437 15.819,-61 -11.289,0.135 -13.717,18.826 -16.83,28 -9.419,27.754 -22.343,53.173 -36.05,79 -3.965,7.47 -13.947,22.313 0.88,24 m 37,-129 -16.655,15.13 c -5.79,8.499 -7.857,21.308 -11.611,30.87 l -22.479,53 c -5.805,13.728 -15.934,27.873 -17.255,43 5.499,0 15.916,0.369 18.377,-6.143 1.79,-4.737 -3.575,-6.53 -3.951,-10.522 L 362.644,794 c 14.335,-27.569 29.033,-53.542 39.792,-83 3.052,-8.356 11.446,-22.035 9.564,-31 m 400,1 1.099,13 -3.099,16 7,-1 c -0.005,-7.946 -0.049,-21.564 -5,-28 m 163,27 c 9.15,-2.461 16.747,-10.751 18,-20 -9.033,3.046 -15.415,11.026 -18,20 m -487,6 19,-15 0,-2 c -17.151,-8.992 -18.992,1.738 -19,17 m -109,-16 0,6 c 3.012,-1.505 4.075,-2.76 5,-6 l -5,0 m 152,2 -1,4 3,-4 -2,0 m 270,0 -1,5 c 2.853,-0.987 3.373,-2.064 4,-5 l -3,0 m -285,6 -1,4 4,-1 0,-2 -1,-1 -2,0 m 450,26 c 9.124,-3.537 23.53,-15.88 24,-26 -10.883,2.967 -21.037,15.587 -24,26 m -587,-24 -1,6 1,-6 m 158,1 c 0.225,2.996 0.552,4.25 3,6 -0.421,-2.843 -0.939,-4.012 -3,-6 m 216,21 c -7.982,1.241 -13.82,10.466 -20,15.255 -16.394,12.701 -29.671,36.043 -40.459,53.656 -4.136,6.751 -10.743,12.94 -12.146,21.089 -1.07,6.215 4.178,11.428 8.605,15 11.163,-32.7 35.453,-61.407 55.85,-88.961 7.51,-10.146 22.722,-24.208 24.15,-37.039 -7.718,2.211 -15.472,13.131 -16,21 M 343,712 c 1.71,4.927 8.556,13.119 14,14.017 7.879,1.3 14.866,-8.143 13,-15.017 -8.801,0.522 -18.48,-1.518 -27,1 m 450,14 c 6.126,-3.127 10.767,-6.817 11,-14 -6.466,2.746 -9.198,7.416 -11,14 m -297,18 0,7 c 7.163,-1.951 27.342,-15.455 29.092,-23.075 L 523,715 l -1,-1 c -4.279,1.718 -4.055,5.478 -6.573,9 -4.652,6.508 -12.583,16.984 -19.427,21 m 316,-20 c 6.226,-0.702 7.691,-4.215 6,-10 -4.399,2.429 -5.84,5.014 -6,10 m -316,1 c 4.805,-0.536 7.635,-2.254 9,-7 -4.377,1.198 -8.161,2.155 -9,7 m 464,30 c 12.275,-3.455 16.302,-21.539 28,-25 l 1,-8 c -12.947,4.74 -24.979,20.425 -29,33 M 371,726 c -4.666,3.078 -10.061,4.632 -9,11 4.667,-1.349 8.765,-6.028 9,-11 m 100,0 1,1 -1,-1 m 330,1 c -5.326,7.152 -14.325,11.048 -17,20 7.785,-3.886 18.031,-11.158 20,-20 l -3,0 m -347,2 -3,10 c 4.082,-1.979 7.06,-4.902 9,-9 l -6,-1 m 365,0 c -3.603,2.409 -5.366,4.672 -6,9 5.853,3.336 -0.688,7.409 -2,12 13.831,-4.881 0.931,11.638 0,19 l 13,-5 c -0.827,-10.479 0.038,-25.729 -5,-35 m -325,2 c 1.1,3.866 3.396,3.262 5,0 l -5,0 m -157,5 c 3.027,3.429 9.119,10.721 14,10.588 7.802,-0.212 7.912,-9.407 0.91,-11.269 L 337,736 m 148,-1 3,3 -3,-3 m 1,35 c 17.962,-0.224 27.866,-16.056 43,-24 -1.028,10.011 -14.884,13.248 -19,22 7.248,-1.827 21.938,-10.332 22.005,-19 L 527,737 c -8.444,2.801 -14.463,10.207 -21.17,15.714 -6.945,5.704 -14.543,9.781 -19.83,17.286 m -22,-31 -1,2 1,-2 m 311,28 c 8.742,-3.363 27.506,-15.326 29,-25 -8.9,1.612 -27.547,15.611 -29,25 m -352,1 c 5.185,0.874 19.431,1.214 22.482,-4.304 2.601,-4.703 -0.087,-11.703 -0.482,-16.696 -13.365,0.285 -17.824,9.507 -22,21 m 36,-17 c 2.492,-0.97 3.146,-1.475 4,-4 -2.626,0.839 -3.161,1.374 -4,4 m 19,-4 0,4 3,-1 0,-2 -1,-1 -2,0 M 82,753 C 58.3222,742.436 25.4248,750.796 0,749 l 0,24 c 24.4994,3.096 50.2942,1.039 75,0.71 39.368,-0.524 78.674,-1.44 118,0.099 l 32.888,2.04 c 4.795,-0.755 3.689,-6.996 8.168,-8.611 7.383,-2.664 19.368,12.239 21.944,17.762 -8.691,-1.268 -10.181,-5.282 -19,-1 4.324,2.595 17.307,6.221 21,2 l 7,1 c -0.613,-2.348 -2.842,-7.272 0.319,-8.745 3.49,-1.626 11.995,5.858 15.681,6.959 9.559,2.858 16.995,1.278 26,-2.214 -1.107,-4.064 -6.991,-17.688 -10.433,-19.922 C 291.454,759.759 276.491,761.82 270,761 c 2.144,-7.061 9.219,-4.119 15,-4 -5.336,-7.553 -29.386,-4.355 -38,-5.155 l -70,-0.899 -51,-1.671 -31,1.131 C 90.2182,750.233 85.1311,748.658 82,753 m 894,-5 c -6.836,9.43 -16.289,15.181 -19,27 12.23,-4.64 18.69,-14.748 21,-27 l -2,0 m -506,1 -5,17 c 8.6,-2.341 10.496,-10.381 5,-17 m 13,13 c 14.026,-4.772 2.077,-14.223 0,0 m 500,-9 1,1 -1,-1 m -574,14 c 5.411,-2.783 10.296,-4.758 12,-11 -5.473,1.822 -9.534,5.822 -12,11 m 359,20 c 10.108,-3.739 19.173,-13.964 27.039,-21.156 3.318,-3.033 7.528,-5.49 8.961,-9.844 -11.348,2.944 -34.919,18.713 -36,31 m -54,-30 c -14.457,5.263 -30.644,23.035 -35.127,37.985 l 0.554,7.935 c -0.784,2.984 -14.104,11.623 -7.993,14.904 4.023,2.16 8.538,-11.288 10.291,-13.824 10.464,-15.138 25.136,-29.944 32.275,-47 m -188,9 8,0 2,-8 c -4.578,1.285 -7.295,4.173 -10,8 m -175,-1 c -9.728,11.17 -17.519,22.555 -23.691,36 -2.816,6.132 -6.444,12.727 0.691,17 l 12.664,-28.714 C 344.122,782.531 351.652,772.914 351,765 m 121,6 c 3.542,-1.048 4.785,-2.532 6,-6 -3.542,1.048 -4.785,2.532 -6,6 m -151.333,-2.667 0.666,0.334 -0.666,-0.334 M 339,768 l -3,5 c 2.343,-1.347 3.401,-2.259 3,-5 m 117,0 -1,4 1,-4 m 311,30 c 4.934,4.816 9.838,-1.132 14,-4.586 8.054,-6.687 26.019,-12.947 24,-25.414 -13.808,3.245 -28.307,20.184 -38,30 m 56,-30 c -3.838,4.392 -9.045,6.862 -10,13 l 9,-3 c -3.001,8.851 -7.649,17.628 6,11 l -3,-21 -2,0 m -353,2 1,1 -1,-1 m -161,2 c 2.153,2.601 3.656,3.493 7,4 -1.763,-3.024 -3.558,-3.615 -7,-4 m 187,26 c 13.433,0 30.321,-12.802 35,-26 -15.342,1.812 -28.12,10.98 -35,26 m 185,-21 5,-5 c -3.127,0.934 -4.066,1.873 -5,5 m 289,-4 c -6.811,5.19 -12.723,10.584 -15,19 7.77,-1.826 18.545,-9.827 15,-19 m -735,4 5,0 c -1.768,-2.75 -3.102,-2.575 -5,0 m 189,-2 c -16.354,-2.02 -6.233,12.189 0,0 m 50,26 c 14.623,-2.476 26.867,-13.714 34,-27 -10.703,1.448 -30.663,16.614 -34,27 m 44,-4 c 11.624,-2.158 29.837,-6.773 23,-23 -8.191,2.91 -19.363,15.154 -23,23 m 153,-23 -1,2 2,0 -1,-2 m -264,1 c -5.947,0.945 -17.171,9.618 -13.458,16.851 2.365,4.608 10.163,2.359 11.416,-2.064 L 407,775 m 256,0 c -7.727,9.932 -20.01,17.972 -23,31 8.394,-5.122 20.872,-21.989 25,-31 l -2,0 m -210,26 c 13.765,-1.74 29.863,-11.84 36,-25 -13.241,1.673 -31.911,10.289 -36,25 m 179,-13 c 3.849,-3.34 7.77,-7.398 10,-12 -5.252,1.616 -7.984,7.143 -10,12 m 20,-12 0,2 2,-2 -2,0 m -224,2 0,4 2,-4 -2,0 m 19,14 c 5.359,-2.778 7.212,-8.269 8,-14 -5.785,1.821 -6.874,8.615 -8,14 M 0,780 0,853 c 0,5.904 -2.80666,21.729 1.02778,26.382 1.84715,2.241 5.61976,0.817 7.97222,0.437 l 21,-1.857 70.83,-3.753 c 11.484,-1.21 17.241,4.354 25.17,-8.209 -1.893,0.48 -5.469,2.1 -7.11,0.311 l 3.012,-10.316 C 120.247,848.648 104.859,830.402 123,837 l 2,-5 c -10.041,-1.729 -30.9381,-15.895 -24.868,-28.902 2.756,-5.907 14.411,-1.073 19.524,-5.611 l 5.567,-10.235 c 2.958,-1.315 7.382,2.398 9.792,3.784 7.116,4.091 14.606,8.767 22.985,8.964 -6.194,-13.26 7.169,-8.745 16,-7.835 l 21,-0.991 27,6.826 C 208.767,777.366 182.82,779.001 161,779 L 0,780 m 328,1 -2,3 c 1.994,-0.847 2.699,-1.007 2,-3 m 112,6 3,0 1,-6 c -2.85,1.556 -3.503,2.793 -4,6 m 111,-5 c -0.71,4.802 0.802,8.488 5,11 0.486,-4.139 -1.427,-7.216 -3,-11 l -2,0 m -315,1 1,1 -1,-1 m 572,2 c -7.857,-1.514 -16.199,7.92 -22.08,12.492 -2.156,1.675 -6.234,3.63 -6.748,6.614 -1.44,8.357 9.215,-1.036 10.632,-2.53 l 8.197,-7.422 c 3.799,-2.753 7.63,-5.042 9.999,-9.154 m -584,3 c 2,2.92 4.573,3.483 8,4 -0.807,-3.765 -4.574,-3.352 -8,-4 m 206.96,0.573 c -5.143,-0.121 -10.098,1.557 -12.483,6.432 -1.776,3.63 -0.089,9.554 4.578,9.638 3.214,0.057 12.033,-1.275 13.913,-4.077 2.862,-4.263 -1.029,-11.877 -6.008,-11.993 M 661,790 c -3.939,5.484 -10.167,11.525 -12,18 5.98,-1.844 12.794,-12.02 14,-18 l -2,0 m -313,1 c -4.346,7.446 -10.162,15.504 -12,24 7.053,-2.283 11.312,-17.415 14,-24 l -2,0 m -54,9 0,3 c 7.367,-0.082 17.866,-4.669 22,-11 l -22,8 m -38,-3 c -3.626,6.835 -15.547,1.816 -22,1 2.88,4.708 9.856,4.859 15,4.985 13.013,0.319 24.624,-2.517 36,-8.985 -8.843,-3.711 -19.535,3.194 -29,3 m 571,-2 c -2.487,4.429 -2.67,8.061 3,9 l -1,-9 -2,0 m -439,1 c -1.921,2.815 -3.137,4.607 -3,8 l 7,-3 c -0.823,-2.712 -1.567,-3.538 -4,-5 m 405,13 c 9.004,-2.108 17.104,-1.661 16,-13 -6.482,1.54 -12.805,7.201 -16,13 m 168,-13 c -5.292,5.441 -7.832,7.928 -8,16 6.903,-3.449 8.974,-7.863 11,-15 l -3,-1 m -854,11 c 1.267,12.371 12.152,19.322 24,18 l -4.879,-11.575 C 125.57,806.644 135.448,804.402 140,802 c -8.455,-8.537 -10.451,-1.025 -18.09,2.725 -4.501,2.21 -10.011,2.262 -14.91,2.275 m 295,-8 2,5 2,0 3,-7 -7,2 m 121,4 c -17.594,0.134 -20.929,10.716 -34,20 -1.204,-7.278 5.596,-12.444 8,-19 l -14,7 c -4.121,-9.709 -18.917,-3.496 -24.285,2.086 -1.841,1.915 -4.864,6.293 -7.809,6.453 -3.663,0.198 -0.284,-5.475 0.434,-6.534 L 455,807 c -3.806,0.259 -10.29,-0.204 -13.501,2.027 -3.774,2.623 -4.971,9.985 -6.849,13.973 -3.443,7.31 -8.788,15.399 -14.655,20.946 -5.749,5.436 -15.934,5.87 -20.352,12.344 -4.144,6.072 -1.676,13.473 -8.827,19.057 -7.094,5.539 -10.922,-1.507 -17.816,-2.045 -7.932,-0.618 -14.058,2.394 -21,5.698 0.372,2.42 1.088,5.418 -1.333,7.073 l -12.577,0.485 -18.085,8.819 c -1.587,0.578 -5.751,0.992 -4.659,-2.061 2.255,-6.309 13.328,-6.47 16.654,-12.316 l -29,13 c 0.347,2.092 2.216,6.543 0.292,8.248 L 293,899.758 266,908 l 2,7 c -11.802,2.505 -18.945,-6.604 -30,-6.921 l -23.91,2.345 -10.091,-3.369 -26.984,1.372 -22.014,-4.894 L 140,906.025 C 125.714,900.764 117.395,884.662 102,881.39 L 78,881.985 0,887 l 0,198 1040,0 c -10.66,-8.73 -30.08,-13.1 -43,-18.31 L 896,1029.47 804,991.228 C 751.871,973.256 696.943,959.193 643,947.64 601.06,938.657 558.883,927.563 516,922.156 469.257,916.262 423.126,909.338 376,908.08 c -11.383,-0.304 -24.057,-0.458 -35.004,2.664 -2.028,0.578 -8.507,1.379 -9.214,-1.732 -1.036,-4.565 9.779,-4.996 12.218,-5.297 14.18,-1.747 28.764,-2.353 43,-1.789 60.565,2.399 119.219,14.53 179,22.498 22.974,3.063 45.519,8.959 68,14.047 60.396,13.67 120.354,28.765 179,49.034 l 65,27.045 78,28.16 65,25.58 36,16.28 22,0.43 45,0 145,0 c -6.76,-6.97 -18.31,-10.68 -27,-14.79 l -57,-26.78 c -54.02,-23.24 -105.84,-51.378 -159,-76.489 l -29,-12.564 c -9.193,-5.096 -19.324,-13.249 -30,-14.978 -6.214,-1.006 -16.284,5.803 -18,11.601 6.603,-2.543 17.251,-7.477 20,2 -15.512,0.363 -29.67,11.736 -44,17 l 1,-5 c -5.775,3.348 -12.097,7.967 -19,8.406 L 896,972 l 1,3 c -10.41,1.316 -14.812,-0.811 -24,-5 l 3,5 -9.999,-3.089 C 847.201,961.14 857.455,942.323 858.785,926 l -1.781,-26 c 0.068,-5.526 4.347,-17.704 -0.066,-22.427 L 842,883.494 c -15.252,-3.407 -28.578,-7.356 -44,-5.948 l -21,4.725 -12.039,-4.212 C 756.446,877.302 737.954,881.351 737,869 l 11,1 c -8.113,-6.999 -18.15,-0.857 -27,-3.714 -12.823,-4.141 -21.849,-14.318 -33,-21.286 3.695,12.155 -1.622,8.793 -7,1 l -7,7 c -1.469,-5.821 2.564,-14.854 -3,-18 -3.237,10.626 -6.843,10.669 -16,16.093 -6.533,3.871 -12.419,8.59 -20,10.381 -10.885,2.571 -25.318,-2.064 -36,-4.523 -8.599,-1.98 -17.013,-1.323 -23,-8.951 l -2,0 c -1.435,1.871 -4.558,7.023 -7.578,5.793 -4.76,-1.939 5.675,-12.863 -3.353,-15.041 -7.643,-1.845 -12.687,15.557 -22.069,15.248 4.793,-10.073 18.528,-17.018 13,-29 l -2,0 c -4.668,8.193 -12.227,19.035 -22,21 2.128,-8.952 11.671,-16.591 17.01,-24 3.035,-4.211 6.294,-7.715 1.99,-12 l -18,19.269 c -0.792,0.676 -9.46,7.532 -8.27,2.031 2.472,-11.428 20.304,-20.157 25.27,-31.3 -12.113,-3.052 -20.43,8.481 -27.999,15.996 -2.184,2.168 -6.404,8.001 -9.884,7.84 -4.829,-0.223 5.349,-10.708 6.31,-11.836 L 523,803 m 135,12 c 5.141,-2.583 10.127,-10.339 11,-16 -6.769,2.063 -10.33,9.324 -11,16 M 281,805 c 0.611,2.558 5.747,8.665 4.03,10.782 -1.679,2.071 -24.228,-5.54 -19.198,4.171 3.637,7.021 12.648,6.078 19.168,6.046 2.96063,-0.0142 5.87547,-0.17222 8.64215,-0.54716 3.03169,-0.41084 5.88549,-1.08215 8.42669,-2.11012 C 309.44997,820.35589 314.19387,814.36107 313,803 l -12.20238,4.06746 -8.76864,18.57761 -1.07927,0.10276 -1.41814,0.10867 -1.58955,0.0758 -1.18176,0.0397 L 292,810 l -1,-8 -10,3 m -90,-1 c 2.583,3.542 4.907,2.417 7,-1 l -7,1 m 9,8 c 8.61,-0.68 15.51,-0.941 24,1 -3.466,-11.782 -19.089,-10.678 -24,-1 m 186,-1 14,-1 c -3.524,-7.752 -9.806,-5.18 -14,1 m -158,-5 c 2.609,8.203 7.931,5.559 15,5 -2.748,-4.255 -10.183,-4.78 -15,-5 m 590,0 3,4 -3,-4 m -673,1 -6.004,2.005 C 122.868,814.02 145.327,820.891 145,807 m 583,50 8.544,-0.042 8.376,-10.919 c 6.136,-8.048 17.457,-17.755 19.08,-28.039 -6.026,-2.057 -7.027,-5.06 -6,-11 -5.871,1.738 -7.806,7.956 -10.54,13 -6.257,11.541 -17.489,23.849 -19.46,37 m -575,-45 4,-2 c -2.263,-0.823 -2.753,-0.004 -4,2 m 269,0 4,11 2,0 5,-13 -11,2 m 376,9 0,2 c 9.033,3.192 15.786,-4.153 16,-13 -6.185,1.811 -10.809,7.361 -16,11 m 32,-11 c 1.473,3.433 2.906,6.829 6,9 -0.222,-4.771 -0.86,-8.15 -6,-9 m -597,8 5,10 c 7.643,-0.767 14.939,-6.426 17,-14 l -22,4 m -61,-2 -3,5 9,7 -2,-12 -4,0 m 204.667,1.333 0.666,0.334 -0.666,-0.334 M 380,817 c 4.209,6.538 12.94,8.297 17,1 l -17,-1 m 577,0 -4,6 c 2.429,-1.639 4.704,-2.921 4,-6 m -169,1 0,2 4,0 0,-2 -4,0 m -428,47 c 9.997,-0.789 26.072,-2.98 31,-13 -2.043,-0.627 -5.139,-1.824 -3.248,-4.59 3.993,-5.845 12.272,-2.088 17.158,-5.17 L 421,826 l -2,-6 c -22.787,9.444 -54.24,16.903 -59,45 m 459,-45 -4,7 12,2 c -1.127,-4.725 -3.396,-7.401 -8,-9 m -677,1 c -1.594,3.381 -2.38,5.783 1,8 l 1,-8 -2,0 m 628,2 c -7.886,11.682 -20.995,24.058 -26,37 4.629,1.371 15.232,4.232 19.787,2.382 3.5,-1.421 4.88,-6.431 6.757,-9.382 4.914,-7.728 13.512,-14.337 16.456,-23 l -17,-7 m -620,14 20,-3 c -4.775,-12.089 -16.468,-7.771 -20,3 m 170,-11 c -9.178,5.036 -15.099,11.367 -26,13 3.19,4.916 7.296,1.158 12,1.342 5.278,0.206 10.617,3.911 14,7.658 L 318.394,833.576 320,826 m -116,1 -2,3 c 1.849,-0.967 2.722,-1.14 2,-3 m 49,0 c -4.18,13.222 7.267,12.429 2,0 l -2,0 m 412,3 3,-3 -3,3 m -74,-2 3,3 -3,-3 m -265,1 1,1 -1,-1 m 34,1 c -7.665,0 -30.62,0.44 -33.048,10.043 -1.971,7.799 5.915,14.697 13.048,11.683 11.733,-4.957 14.823,-10.333 20,-21.726 m 6.667,0.333 0.666,0.334 -0.666,-0.334 M 295,831 l 1,1 -1,-1 m 367,0 0,2 2,0 0,-2 -2,0 m -474,40 c 14.489,-4.577 21.753,-15.708 32.039,-25.96 L 233,833 l -16.698,1.496 -6.396,8.465 C 201.984,851.698 192.832,859.997 188,871 m 95,-34 -10,-3.1 c -5.637,-1.659 -15.851,3.144 -10.882,10.497 4.984,7.375 18.981,-1.854 20.882,-7.397 m 93,-4 -4,4 c 2.253,-0.832 4.441,-1.46 4,-4 m 219,0 c 0.744,2.68 1.529,3.719 4,5 l -4,-5 m 213,2 -12.961,-1.527 c -6.715,1.603 -11.619,12.118 -14.901,17.527 -1.63,2.686 -7.091,8.003 -4.9,11.4 2.341,3.631 10.669,2.2 13.433,0.011 C 795.887,856.698 804.189,843.332 808,835 z"
     id="path416"
     inkscape:connector-curvature="0"
     sodipodi:nodetypes="ccccccccccccccccccccccccccccccccccccccccccccccccccccccccccccccccccccccccccccccccccccccccccccccccccccccccccccccccccccccccccscccccccccccccccccccccccccccccccccccccccccccccccccccccccccccccccccccccccccccccccccccccccsccccccccccccccccccccccccccccccccccccccccssccccccccccccccccccccccccccccccccccccccccccccccccccccccccccccccccccccccccccccccccccccccccsccccccccccccccccccccccccccccccccccccccccccccccccccccccccccccccccccccccccccccccccccccccccccccccccccccccccccccccccccccccccccccccccccsccccsccccccccccccccccccccccccccccccccccccccccccccccccccccccccccccccccccssccccccccccccccccccccccccccccccccccccccccccccccccccccccccccccccccccccccccccccccccccccccccccccccccccccccccccccccccccccccccccccccccccccccccccccccccccccccccccc" />
  <path
     style="fill:#a7a7a7; stroke:none;"
     d="M940 834L940 837L940 834z"
     id="path418" />
  <path
     style="fill:#ffffff; stroke:none;"
     d="M951 834L950 847C954.075 844.121 953 838.545 953 834L951 834M224 850C230.385 847.154 236.866 841.616 241 836C234.363 837.983 227.163 843.82 224 850M194 837L192 841C194.004 839.753 194.823 839.263 194 837z"
     id="path420" />
  <path
     style="fill:#ffffff; stroke:none;"
     d="M132 848L133 839C128.696 841.171 126.226 846.082 132 848M656 839C656.578 841.697 657.261 841.789 660 842L656 839M810 839C808.518 849.028 801.509 856.844 796 865C799.994 866.264 808.747 869.789 812.463 867.099C817.88 863.178 813.528 856.955 822 856C820.34 849.415 816.688 841.476 810 839M823 841C825.211 847.179 832.178 857.046 828.731 863.853L821 871C832.788 870.211 845.06 880.498 852 866L843.414 866.688C839.153 865.192 834.809 855.824 833 852C839.016 850.776 842.343 853.364 846 858C849.336 846.722 831.455 839.526 823 841M174 869C183.722 864.361 198.625 850.398 204 841C193.097 844.992 177.007 857.435 174 869M152 855C161.082 857.752 169.364 851.535 173 843C165.157 844.158 155.908 847.703 152 855M228 856L255 856C254.327 847.359 245.646 852.943 242 846C236.188 847.334 231.062 850.861 228 856M282 852L293 851C289.947 845.658 283.881 845.995 282 852M144 851L147 848L144 851M629 854C631.637 853.061 632.618 852.42 634 850L629 854z"
     id="path424" />
  <path
     style="fill:#777777; stroke:none;"
     d="M939 850L939 853L939 850z"
     id="path426" />
  <path
     style="fill:#ffffff; stroke:none;"
     d="M262 852L262 855C265.987 854.997 269.668 855.598 272 852L262 852M141 853L142 854L141 853z"
     id="path428" />
  <path
     style="fill:#dadada; stroke:none;"
     d="M938.333 853.667L938.667 854.333L938.333 853.667z"
     id="path430" />
  <path
     style="fill:#b8b8b8; stroke:none;"
     d="M938 855L938 858L938 855z"
     id="path432" />
  <path
     style="fill:#ffffff; stroke:none;"
     d="M215 865L225 863L225 858C220.657 859.03 217.282 861.119 215 865M282 869C271.843 867.368 285.968 862.947 287 858L274 861.012L264.004 867.338L252.985 863.631C249.825 864.605 241.342 870.255 244.851 874.378C247.229 877.172 253.184 873.817 256 873.218C263.926 871.533 278.96 879.044 282 869M298 858L299 859L298 858z"
     id="path434" />
  <path
     style="fill:#ffffff; stroke:none;"
     d="M166 861C162.822 863.388 162.13 865.054 162 869C164.419 866.665 166.707 864.45 166 861M391 861L380 868C382.368 873.914 385.452 873.713 391 872C392.087 867.608 394.573 864.66 391 861M242 862L236.976 862.094C225.594 863.125 235.939 872.271 242 862M297 873C303.545 870.786 313.119 868.028 317 862C308.864 862.022 298.53 863.591 297 873M129 863L128 865L129 863M126 865L127 866L126 865M290 865L289 867L291 867L290 865M143 867C144.384 870.768 146.044 871.695 150 872L150 875C155.266 874.129 155.67 870.807 155 866L143 867z"
     id="path438" />
  <path
     style="fill:#696969; stroke:none;"
     d="M938.333 866.667L938.667 867.333L938.333 866.667z"
     id="path440" />
  <path
     style="fill:#494949; stroke:none;"
     d="M938.333 868.667L938.667 869.333L938.333 868.667z"
     id="path442" />
  <path
     style="fill:#ffffff; stroke:none;"
     d="M749.667 869.333L750.333 869.667L749.667 869.333M328 870C330.867 874.322 335.442 874.619 339 871L328 870z"
     id="path444" />
  <path
     style="fill:#262626; stroke:none;"
     d="M938 870L938 874L938 870z"
     id="path448" />
  <path
     style="fill:#ffffff; stroke:none;"
     d="M215 871C211.811 871.027 195.65 873.021 199.327 879.411C202.862 885.554 213.037 873.506 215 871z"
     id="path450" />
  <path
     style="fill:#c8c8c8; stroke:none;"
     d="M937 872L937 875L937 872z"
     id="path452" />
  <path
     style="fill:#9a9a9a; stroke:none;"
     d="M937 875L937 878L937 875z"
     id="path454" />
  <path
     style="fill:#ffffff; stroke:none;"
     d="M119 881L119 883C124.393 887.064 140.929 905.384 147 897C136.1 892.623 135.908 869.091 119 881M217 890L225 888.333L232.961 887.347C237.009 885.985 242.493 879.014 235.81 876.85C228.488 874.48 218.676 883.862 217 890M946 876C945.285 879.52 944.747 881.947 948 884L948 876L946 876M256 880C258.612 880.873 259.547 880.276 261 878L256 880M285 878L285 880L287 880L287 878L285 878z"
     id="path456" />
  <path
     style="fill:#262626; stroke:none;"
     d="M937.333 878.667L937.667 879.333L937.333 878.667z"
     id="path458" />
  <path
     style="fill:#ffffff; stroke:none;"
     d="M294 881L297 879L294 881M302 879L303 880L302 879M156 885C162.824 894.164 172.406 891.431 173 880C166.112 880.239 160.932 879.619 156 885M304 880L304 882L306 882L306 880L304 880z"
     id="path460" />
  <path
     style="fill:#ffffff; stroke:none;"
     d="M189 891C195.277 890.002 194.26 886.733 192 882C188.037 884.193 188.272 886.815 189 891z"
     id="path464" />
  <path
     style="fill:#ffffff; stroke:none;"
     d="M244 887L246 889L246 887L244 887M260 897L284 893C278.874 884.224 261.002 886.078 260 897z"
     id="path468" />
  <path
     style="fill:#ffffff; stroke:none;"
     d="M193 899C196.22 899.327 197.36 898.808 199 896L216 900L210 888C203.33 889.455 197.321 893.767 193 899z"
     id="path472" />
  <path
     style="fill:#494949; stroke:none;"
     d="M869 890L869 893L869 890z"
     id="path474" />
  <path
     style="fill:#e8e8e8; stroke:none;"
     d="M870 892L870 895L870 892z"
     id="path476" />
  <path
     style="fill:#b8b8b8; stroke:none;"
     d="M870.333 895.667L870.667 896.333L870.333 895.667z"
     id="path478" />
  <path
     style="fill:#898989; stroke:none;"
     d="M870 897L870 900L870 897z"
     id="path480" />
  <path
     style="fill:#ffffff; stroke:none;"
     d="M951 897L952 904L956 898L951 897M223 901L232 901C229.606 897.307 225.394 897.307 223 901z"
     id="path482" />
  <path
     style="fill:#777777; stroke:none;"
     d="M935.333 899.667L935.667 900.333L935.333 899.667z"
     id="path484" />
  <path
     style="fill:#b8b8b8; stroke:none;"
     d="M870 900L870 903L870 900z"
     id="path486" />
  <path
     style="fill:#010101; stroke:none;"
     d="M1056 1085C1045.68 1074.59 1026.34 1070.63 1013 1064.99C976.879 1049.72 939.778 1037.43 903 1024.05L823 990.757C796.46 979.975 767.463 972.009 740 963.771C688.279 948.257 634.05 936.229 581 926.245L510 914.891C465.587 905.21 418.274 904.078 373 901.769L341 903.926C338.274 904.194 331.262 904.676 331.346 908.788C331.407 911.802 338.094 911.759 340 911.42C350.65 909.526 361.023 907.763 372 908.015C416.399 909.031 459.804 915.757 504 920.475C549.884 925.372 596.483 936.563 641 947.409C712.809 964.904 783.426 983.188 852 1010.92L990 1064.24C1012.17 1072.31 1031.97 1085 1056 1085z"
     id="path488" />
  <path
     style="fill:#262626; stroke:none;"
     d="M869 902L869 905L869 902z"
     id="path492" />
  <path
     style="fill:#e8e8e8; stroke:none;"
     d="M934 902L934 907L934 902z"
     id="path494" />
  <path
     style="fill:#ffffff; stroke:none;"
     d="M950 919C956.437 917.249 966.585 909.691 968 903C959.383 903.472 951.194 910.43 950 919z"
     id="path496" />
  <path
     style="fill:#777777; stroke:none;"
     d="M869 905L869 910L869 905z"
     id="path498" />
  <path
     style="fill:#ffffff; stroke:none;"
     d="M982 911C975.453 908.637 960.096 914.955 958.921 923.076C957.921 929.99 967.041 926.187 969.286 924.111L974.997 919.015C977.967 916.477 980.603 914.701 982 911z"
     id="path502" />
  <path
     style="fill:#ffffff; stroke:none;"
     d="M973 931C978.286 937.379 986.983 939.925 994 944.027L1059 975.12L1206 1043.78L1250.96 1065.67C1262.03 1071.73 1273.67 1080.86 1286 1084.36C1298.65 1087.95 1315.86 1085 1329 1085C1321.86 1078.38 1310.53 1074.7 1302 1069.91L1242 1037.74C1183.23 1007.64 1124.54 976.84 1064 950.424L1013 926.781C1007.28 924.082 997.275 917.017 991 917.361C984.323 917.727 976.965 926.232 973 931z"
     id="path506" />
  <path
     style="fill:#9a9a9a; stroke:none;"
     d="M902 923L905 924L902 923z"
     id="path510" />
  <path
     style="fill:#777777; stroke:none;"
     d="M901 924L902 925L901 924M906 924L907 925L906 924z"
     id="path512" />
  <path
     style="fill:#898989; stroke:none;"
     d="M900 925L901 926L900 925M907 925L908 926L907 925z"
     id="path516" />
  <path
     style="fill:#a7a7a7; stroke:none;"
     d="M868 931L868 936L868 931z"
     id="path524" />
  <path
     style="fill:#c8c8c8; stroke:none;"
     d="M933 932L933 935L933 932z"
     id="path526" />
  <path
     style="fill:#ffffff; stroke:none;"
     d="M952 932L952 936L956 933L952 932z"
     id="path528" />
  <path
     style="fill:#777777; stroke:none;"
     d="M933.333 935.667L933.667 936.333L933.333 935.667z"
     id="path530" />
  <path
     style="fill:#262626; stroke:none;"
     d="M867.333 936.667L867.667 937.333L867.333 936.667z"
     id="path532" />
  <path
     style="fill:#dadada; stroke:none;"
     d="M868.333 936.667L868.667 937.333L868.333 936.667z"
     id="path534" />
  <path
     style="fill:#494949; stroke:none;"
     d="M867.333 938.667L867.667 939.333L867.333 938.667z"
     id="path536" />
  <path
     style="fill:#a7a7a7; stroke:none;"
     d="M932 939L933 940L932 939z"
     id="path538" />
  <path
     style="fill:#777777; stroke:none;"
     d="M867.333 940.667L867.667 941.333L867.333 940.667z"
     id="path540" />
  <path
     style="fill:#696969; stroke:none;"
     d="M932 940L933 941L932 940z"
     id="path542" />
  <path
     style="fill:#9a9a9a; stroke:none;"
     d="M867 942L867 945L867 942z"
     id="path544" />
  <path
     style="fill:#c8c8c8; stroke:none;"
     d="M931 942L932 943L931 942z"
     id="path546" />
  <path
     style="fill:#696969; stroke:none;"
     d="M899 943L899 946L899 943z"
     id="path548" />
  <path
     style="fill:#494949; stroke:none;"
     d="M907 943L907 948L907 943z"
     id="path550" />
  <path
     style="fill:#696969; stroke:none;"
     d="M931 943L932 944L931 943z"
     id="path552" />
  <path
     style="fill:#494949; stroke:none;"
     d="M930 945L931 946L930 945M899 946L899 949L899 946z"
     id="path554" />
  <path
     style="fill:#696969; stroke:none;"
     d="M929 946L930 947L929 946M866 947L866 952L866 947z"
     id="path556" />
  <path
     style="fill:#a7a7a7; stroke:none;"
     d="M928 947L929 948L928 947z"
     id="path558" />
  <path
     style="fill:#c8c8c8; stroke:none;"
     d="M881 948L882 949L881 948z"
     id="path560" />
  <path
     style="fill:#696969; stroke:none;"
     d="M882 948L885 949L882 948z"
     id="path562" />
  <path
     style="fill:#dadada; stroke:none;"
     d="M898 948L898 951L898 948z"
     id="path564" />
  <path
     style="fill:#696969; stroke:none;"
     d="M907 948L907 952L907 948z"
     id="path566" />
  <path
     style="fill:#9a9a9a; stroke:none;"
     d="M880 949L881 950L880 949z"
     id="path568" />
  <path
     style="fill:#a7a7a7; stroke:none;"
     d="M886 949L887 950L886 949z"
     id="path570" />
  <path
     style="fill:#b8b8b8; stroke:none;"
     d="M927 949L928 950L927 949z"
     id="path572" />
  <path
     style="fill:#c8c8c8; stroke:none;"
     d="M879 950L880 951L879 950z"
     id="path574" />
  <path
     style="fill:#494949; stroke:none;"
     d="M927 950L928 951L927 950z"
     id="path576" />
  <path
     style="fill:#696969; stroke:none;"
     d="M887 951L888 952L887 951z"
     id="path580" />
  <path
     style="fill:#777777; stroke:none;"
     d="M898 951L899 952L898 951z"
     id="path582" />
  <path
     style="fill:#9a9a9a; stroke:none;"
     d="M926 951L927 952L926 951z"
     id="path584" />
  <path
     style="fill:#898989; stroke:none;"
     d="M866 952L866 955L866 952z"
     id="path586" />
  <path
     style="fill:#262626; stroke:none;"
     d="M887 952L887 957L887 952z"
     id="path588" />
  <path
     style="fill:#e8e8e8; stroke:none;"
     d="M888 952L888 957L888 952z"
     id="path590" />
  <path
     style="fill:#c8c8c8; stroke:none;"
     d="M925 952L926 953L925 952z"
     id="path592" />
  <path
     style="fill:#a7a7a7; stroke:none;"
     d="M897 953L898 954L897 953z"
     id="path594" />
  <path
     style="fill:#777777; stroke:none;"
     d="M906 954L907 955L906 954z"
     id="path596" />
  <path
     style="fill:#b8b8b8; stroke:none;"
     d="M923 954L924 955L923 954z"
     id="path598" />
  <path
     style="fill:#a7a7a7; stroke:none;"
     d="M866 955L866 958L866 955z"
     id="path600" />
  <path
     style="fill:#b8b8b8; stroke:none;"
     d="M896 955L897 956L896 955z"
     id="path602" />
  <path
     style="fill:#a7a7a7; stroke:none;"
     d="M922 955L923 956L922 955z"
     id="path604" />
  <path
     style="fill:#696969; stroke:none;"
     d="M896 956L897 957L896 956z"
     id="path606" />
  <path
     style="fill:#585858; stroke:none;"
     d="M905 956L906 957L905 956z"
     id="path608" />
  <path
     style="fill:#898989; stroke:none;"
     d="M921 956L922 957L921 956z"
     id="path610" />
  <path
     style="fill:#585858; stroke:none;"
     d="M887 957L887 960L887 957z"
     id="path612" />
  <path
     style="fill:#b8b8b8; stroke:none;"
     d="M905 957L906 958L905 957z"
     id="path614" />
  <path
     style="fill:#585858; stroke:none;"
     d="M920 957L921 958L920 957z"
     id="path616" />
  <path
     style="fill:#696969; stroke:none;"
     d="M854 958L855 959L854 958z"
     id="path618" />
  <path
     style="fill:#a7a7a7; stroke:none;"
     d="M895 958L896 959L895 958z"
     id="path620" />
  <path
     style="fill:#363636; stroke:none;"
     d="M904 958L905 959L904 958z"
     id="path622" />
  <path
     style="fill:#9a9a9a; stroke:none;"
     d="M918 958L919 959L918 958z"
     id="path624" />
  <path
     style="fill:#b8b8b8; stroke:none;"
     d="M867 959L868 960L867 959z"
     id="path626" />
  <path
     style="fill:#a7a7a7; stroke:none;"
     d="M878 959L879 960L878 959z"
     id="path628" />
  <path
     style="fill:#494949; stroke:none;"
     d="M895 959L896 960L895 959z"
     id="path630" />
  <path
     style="fill:#898989; stroke:none;"
     d="M904 959L905 960L904 959z"
     id="path632" />
  <path
     style="fill:#494949; stroke:none;"
     d="M917 959L918 960L917 959z"
     id="path634" />
  <path
     style="fill:#777777; stroke:none;"
     d="M855 960L856 961L855 960z"
     id="path636" />
  <path
     style="fill:#585858; stroke:none;"
     d="M867 960L868 961L867 960M878 960L878 963L878 960z"
     id="path638" />
  <path
     style="fill:#c8c8c8; stroke:none;"
     d="M887.333 960.667L887.667 961.333L887.333 960.667M894 960L895 961L894 960z"
     id="path640" />
  <path
     style="fill:#585858; stroke:none;"
     d="M916 960L917 961L916 960z"
     id="path642" />
  <path
     style="fill:#494949; stroke:none;"
     d="M946 960L947 961L946 960z"
     id="path644" />
  <path
     style="fill:#a7a7a7; stroke:none;"
     d="M868 961L869 962L868 961z"
     id="path646" />
  <path
     style="fill:#585858; stroke:none;"
     d="M903 961L904 962L903 961M915 961L916 962L915 961M944 961L945 962L944 961z"
     id="path648" />
  <path
     style="fill:#dadada; stroke:none;"
     d="M945.667 961.333L946.333 961.667L945.667 961.333z"
     id="path650" />
  <path
     style="fill:#a7a7a7; stroke:none;"
     d="M856 962L857 963L856 962z"
     id="path652" />
  <path
     style="fill:#c8c8c8; stroke:none;"
     d="M869 962L870 963L869 962z"
     id="path654" />
  <path
     style="fill:#9a9a9a; stroke:none;"
     d="M893 962L894 963L893 962z"
     id="path656" />
  <path
     style="fill:#c8c8c8; stroke:none;"
     d="M912 962L913 963L912 962z"
     id="path660" />
  <path
     style="fill:#777777; stroke:none;"
     d="M913 962L914 963L913 962z"
     id="path662" />
  <path
     style="fill:#696969; stroke:none;"
     d="M943 962L944 963L943 962z"
     id="path664" />
  <path
     style="fill:#898989; stroke:none;"
     d="M857 963L858 964L857 963z"
     id="path666" />
  <path
     style="fill:#b8b8b8; stroke:none;"
     d="M870 963L871 964L870 963z"
     id="path668" />
  <path
     style="fill:#9a9a9a; stroke:none;"
     d="M877 963L878 964L877 963z"
     id="path670" />
  <path
     style="fill:#777777; stroke:none;"
     d="M886 963L887 964L886 963z"
     id="path672" />
  <path
     style="fill:#363636; stroke:none;"
     d="M910.667 963.333L911.333 963.667L910.667 963.333z"
     id="path674" />
  <path
     style="fill:#696969; stroke:none;"
     d="M942 963L943 964L942 963M858 964L859 965L858 964z"
     id="path676" />
  <path
     style="fill:#777777; stroke:none;"
     d="M871 964L872 965L871 964z"
     id="path678" />
  <path
     style="fill:#b8b8b8; stroke:none;"
     d="M872 964L877 965L872 964z"
     id="path680" />
  <path
     style="fill:#c8c8c8; stroke:none;"
     d="M892 964L893 965L892 964z"
     id="path684" />
  <path
     style="fill:#585858; stroke:none;"
     d="M940 964L941 965L940 964z"
     id="path686" />
  <path
     style="fill:#9a9a9a; stroke:none;"
     d="M941 964L942 965L941 964z"
     id="path688" />
  <path
     style="fill:#494949; stroke:none;"
     d="M859 965L860 966L859 965z"
     id="path690" />
  <path
     style="fill:#363636; stroke:none;"
     d="M872 965L875 966L872 965M885 965C886.734 967.003 888.355 966.923 891 967L885 965z"
     id="path692" />
  <path
     style="fill:#898989; stroke:none;"
     d="M892 965L893 966L892 965z"
     id="path694" />
  <path
     style="fill:#494949; stroke:none;"
     d="M937 965L938 966L937 965z"
     id="path696" />
  <path
     style="fill:#898989; stroke:none;"
     d="M938 965L939 966L938 965z"
     id="path698" />
  <path
     style="fill:#b8b8b8; stroke:none;"
     d="M859 966L860 967L859 966z"
     id="path700" />
  <path
     style="fill:#585858; stroke:none;"
     d="M934 966L935 967L934 966z"
     id="path702" />
  <path
     style="fill:#898989; stroke:none;"
     d="M935 966L936 967L935 966M860 967L861 968L860 967z"
     id="path704" />
  <path
     style="fill:#363636; stroke:none;"
     d="M930 967L931 968L930 967z"
     id="path706" />
  <path
     style="fill:#777777; stroke:none;"
     d="M931 967L932 968L931 967z"
     id="path708" />
  <path
     style="fill:#dadada; stroke:none;"
     d="M932.667 967.333L933.333 967.667L932.667 967.333z"
     id="path710" />
  <path
     style="fill:#585858; stroke:none;"
     d="M861 968L862 969L861 968M926.667 968.333L927.333 968.667L926.667 968.333z"
     id="path712" />
  <path
     style="fill:#898989; stroke:none;"
     d="M928 968L929 969L928 968z"
     id="path714" />
  <path
     style="fill:#494949; stroke:none;"
     d="M862 969L863 970L862 969z"
     id="path716" />
  <path
     style="fill:#dadada; stroke:none;"
     d="M925.667 969.333L926.333 969.667L925.667 969.333z"
     id="path718" />
  <path
     style="fill:#585858; stroke:none;"
     d="M863 970L864 971L863 970z"
     id="path720" />
  <path
     style="fill:#494949; stroke:none;"
     d="M915.667 970.333L916.333 970.667L915.667 970.333z"
     id="path722" />
  <path
     style="fill:#a7a7a7; stroke:none;"
     d="M864 971L865 972L864 971z"
     id="path724" />
  <path
     style="fill:#585858; stroke:none;"
     d="M865 971L866 972L865 971z"
     id="path726" />
  <path
     style="fill:#777777; stroke:none;"
     d="M912 971L915 972L912 971z"
     id="path728" />
  <path
     style="fill:#c8c8c8; stroke:none;"
     d="M866 972L867 973L866 972z"
     id="path730" />
  <path
     style="fill:#898989; stroke:none;"
     d="M867 972L868 973L867 972z"
     id="path732" />
  <path
     style="fill:#494949; stroke:none;"
     d="M908 972L909 973L908 972z"
     id="path734" />
  <path
     style="fill:#a7a7a7; stroke:none;"
     d="M909 972L912 973L909 972M869.667 973.333L870.333 973.667L869.667 973.333z"
     id="path736" />
  <path
     style="fill:#585858; stroke:none;"
     d="M871.667 973.333L872.333 973.667L871.667 973.333z"
     id="path738" />
  <path
     style="fill:#262626; stroke:none;"
     d="M873.667 973.333L874.333 973.667L873.667 973.333z"
     id="path740" />
  <path
     style="fill:#696969; stroke:none;"
     d="M904.667 973.333L905.333 973.667L904.667 973.333z"
     id="path742" />
  <path
     style="fill:#c8c8c8; stroke:none;"
     d="M906.667 973.333L907.333 973.667L906.667 973.333z"
     id="path744" />
  <path
     style="fill:#b8b8b8; stroke:none;"
     d="M874.667 974.333L875.333 974.667L874.667 974.333z"
     id="path746" />
  <path
     style="fill:#494949; stroke:none;"
     d="M879 974L884 975L879 974z"
     id="path748" />
  <path
     style="fill:#363636; stroke:none;"
     d="M884 974L890 975L884 974z"
     id="path750" />
  <path
     style="fill:#171717; stroke:none;"
     d="M890 974L894 975L890 974z"
     id="path752" />
  <path
     style="fill:#494949; stroke:none;"
     d="M894 974L897 975L894 974z"
     id="path754" />
  <path
     style="fill:#e8e8e8; stroke:none;"
     d="M883 975L890 976L883 975z"
     id="path756" />
  <path
     style="fill:#c8c8c8; stroke:none;"
     d="M890 975L894 976L890 975z"
     id="path758" />
  <path
     style="fill:#010101; stroke:none;"
     d="M864 1043L865 1044L864 1043M1490 1056L1491 1057L1490 1056z"
     id="path760" />
  <flowRoot
     xml:space="preserve"
     id="flowRoot3774"
     style="fill:black;stroke:none;stroke-opacity:1;stroke-width:1px;stroke-linejoin:miter;stroke-linecap:butt;fill-opacity:1;font-family:Sans;font-style:normal;font-weight:normal;font-size:40px;line-height:125%;letter-spacing:0px;word-spacing:0px"><flowRegion
       id="flowRegion3776"><rect
         id="rect3778"
         width="73.145103"
         height="61.766975"
         x="1622.1958"
         y="153.61902" /></flowRegion><flowPara
       id="flowPara3780" /></flowRoot>  <text
     xml:space="preserve"
     style="font-size:507px;font-style:normal;font-variant:normal;font-weight:300;font-stretch:normal;line-height:125%;letter-spacing:0px;word-spacing:0px;fill:#000000;fill-opacity:1;stroke:none;font-family:DINPro-Light;-inkscape-font-specification:DINPro-Light Light"
     x="1765.73"
     y="1085.0625"
     id="text3782"
     sodipodi:linespacing="125%"><tspan
       sodipodi:role="line"
       x="1765.73"
       y="1085.0625"
       id="tspan3788">Not found</tspan></text>
</svg>
